<?xml version="1.0" encoding="UTF-8" standalone="no"?>
<!-- Created with Inkscape (http://www.inkscape.org/) -->

<svg
   xmlns:dc="http://purl.org/dc/elements/1.1/"
   xmlns:cc="http://creativecommons.org/ns#"
   xmlns:rdf="http://www.w3.org/1999/02/22-rdf-syntax-ns#"
   xmlns:svg="http://www.w3.org/2000/svg"
   xmlns="http://www.w3.org/2000/svg"
   xmlns:xlink="http://www.w3.org/1999/xlink"
   xmlns:sodipodi="http://sodipodi.sourceforge.net/DTD/sodipodi-0.dtd"
   xmlns:inkscape="http://www.inkscape.org/namespaces/inkscape"
   width="120"
   height="80"
   id="svg4142"
   version="1.1"
   inkscape:version="0.47 r22583"
   sodipodi:docname="Config.svg">
  <defs
     id="defs4144">
    <filter
       inkscape:collect="always"
       id="filter7036">
      <feGaussianBlur
         inkscape:collect="always"
         stdDeviation="1.7000003"
         id="feGaussianBlur7038" />
    </filter>
    <linearGradient
       id="linearGradient5417">
      <stop
         style="stop-color:#a06020;stop-opacity:1;"
         offset="0"
         id="stop5419" />
      <stop
         id="stop5431"
         offset="0.5"
         style="stop-color:#f0c09a;stop-opacity:1;" />
      <stop
         style="stop-color:#a06020;stop-opacity:1;"
         offset="1"
         id="stop5421" />
    </linearGradient>
    <linearGradient
       y2="1047.3622"
       x2="60"
       y1="977.36218"
       x1="60"
       gradientUnits="userSpaceOnUse"
       id="linearGradient5485"
       xlink:href="#linearGradient5417"
       inkscape:collect="always" />
  </defs>
  <sodipodi:namedview
     id="base"
     pagecolor="#ffffff"
     bordercolor="#666666"
     borderopacity="1.0"
     inkscape:pageopacity="0.0"
     inkscape:pageshadow="2"
     inkscape:zoom="7.7875"
     inkscape:cx="60"
     inkscape:cy="40"
     inkscape:document-units="px"
     inkscape:current-layer="layer1"
     showgrid="true"
     inkscape:window-width="1498"
     inkscape:window-height="876"
     inkscape:window-x="112"
     inkscape:window-y="70"
     inkscape:window-maximized="0">
    <inkscape:grid
       type="xygrid"
       id="grid4150"
       empspacing="5"
       visible="true"
       enabled="true"
       snapvisiblegridlinesonly="true" />
  </sodipodi:namedview>
  <metadata
     id="metadata4147">
    <rdf:RDF>
      <cc:Work
         rdf:about="">
        <dc:format>image/svg+xml</dc:format>
        <dc:type
           rdf:resource="http://purl.org/dc/dcmitype/StillImage" />
        <dc:title />
      </cc:Work>
    </rdf:RDF>
  </metadata>
  <g
     inkscape:groupmode="layer"
     id="layer3"
     inkscape:label="Schatten"
     style="display:inline">
    <rect
       style="fill:#000000;fill-opacity:1;stroke:none;display:inline;filter:url(#filter7036)"
       id="rect3759-6"
       width="100"
       height="70.000031"
       x="13"
       y="7.9999695"
       rx="0"
       ry="0" />
  </g>
  <g
     inkscape:label="Ebene 1"
     inkscape:groupmode="layer"
     id="layer1"
     transform="translate(0,-972.36218)"
     style="display:inline">
    <rect
       ry="0"
       rx="0"
       y="977.36218"
       x="10"
       height="70"
       width="100"
       id="rect3778"
       style="fill:url(#linearGradient5485);fill-opacity:1;stroke:none;display:inline" />
    <path
       style="fill:none;stroke:#000000;stroke-width:5;stroke-linecap:butt;stroke-linejoin:miter;stroke-miterlimit:4;stroke-opacity:1;stroke-dasharray:none;display:inline"
       d="M 52.78125,990.98718 50,992.14343 l 2.125,5.15625 c -3.070123,1.60893 -5.579767,4.11712 -7.1875,7.18752 l -5.15625,-2.125 -1.15625,2.7812 5.15625,2.125 C 43.275459,1008.8773 43,1010.5861 43,1012.3622 c 0,1.7706 0.247716,3.4886 0.75,5.0937 l -5.125,2.125 1.15625,2.7813 5.15625,-2.125 c 1.608933,3.0701 4.117145,5.5797 7.1875,7.1875 l -2.125,5.1562 2.78125,1.1563 2.125,-5.1563 c 1.608867,0.5058 3.317645,0.7813 5.09375,0.7813 1.770663,0 3.48867,-0.2477 5.09375,-0.75 l 2.125,5.125 2.78125,-1.1563 -2.125,-5.1562 c 3.070123,-1.609 5.579767,-4.1172 7.1875,-7.1875 l 5.15625,2.125 1.15625,-2.7813 -5.15625,-2.125 C 76.724541,1015.8471 77,1014.1383 77,1012.3622 c 0,-1.7707 -0.247716,-3.4887 -0.75,-5.0938 l 5.125,-2.125 -1.15625,-2.7812 -5.15625,2.125 c -1.608933,-3.0701 -4.117145,-5.57979 -7.1875,-7.18752 l 2.125,-5.15625 -2.78125,-1.15625 -2.125,5.15625 C 63.484883,995.63764 61.776105,995.36218 60,995.36218 c -1.770663,0 -3.48867,0.24772 -5.09375,0.75 l -2.125,-5.125 z"
       id="path3589" />
    <path
       sodipodi:type="arc"
       style="fill:none;stroke:#000000;stroke-width:3.05555605999999980;stroke-linecap:butt;stroke-linejoin:miter;stroke-miterlimit:4;stroke-opacity:1;stroke-dasharray:none;display:inline"
       id="path3760"
       sodipodi:cx="57.5"
       sodipodi:cy="39.5"
       sodipodi:rx="5.5"
       sodipodi:ry="5.5"
       d="m 63,39.5 a 5.5,5.5 0 1 1 -11,0 5.5,5.5 0 1 1 11,0 z"
       transform="matrix(1.6363633,0,0,1.6363633,-34.090886,947.72583)" />
  </g>
</svg>
