<?xml version="1.0" encoding="UTF-8" standalone="no"?>
<!-- Created with Inkscape (http://www.inkscape.org/) -->

<svg
   xmlns:dc="http://purl.org/dc/elements/1.1/"
   xmlns:cc="http://creativecommons.org/ns#"
   xmlns:rdf="http://www.w3.org/1999/02/22-rdf-syntax-ns#"
   xmlns:svg="http://www.w3.org/2000/svg"
   xmlns="http://www.w3.org/2000/svg"
   xmlns:xlink="http://www.w3.org/1999/xlink"
   xmlns:sodipodi="http://sodipodi.sourceforge.net/DTD/sodipodi-0.dtd"
   xmlns:inkscape="http://www.inkscape.org/namespaces/inkscape"
   width="120"
   height="80"
   id="svg4142"
   version="1.1"
   inkscape:version="0.47 r22583"
   sodipodi:docname="Cloud.svg"
   style="display:inline">
  <defs
     id="defs4144">
    <inkscape:perspective
       sodipodi:type="inkscape:persp3d"
       inkscape:vp_x="0 : 40 : 1"
       inkscape:vp_y="0 : 1000 : 0"
       inkscape:vp_z="120 : 40 : 1"
       inkscape:persp3d-origin="60 : 26.666667 : 1"
       id="perspective21428" />
    <linearGradient
       id="linearGradient3868">
      <stop
         style="stop-color:#000000;stop-opacity:0"
         offset="0"
         id="stop3870" />
      <stop
         style="stop-color:#000000;stop-opacity:1"
         offset="1"
         id="stop3872" />
    </linearGradient>
    <linearGradient
       id="linearGradient3816">
      <stop
         style="stop-color:#ffffff;stop-opacity:1;"
         offset="0"
         id="stop3818" />
      <stop
         style="stop-color:#ffffff;stop-opacity:0"
         offset="1"
         id="stop3820" />
    </linearGradient>
    <linearGradient
       inkscape:collect="always"
       xlink:href="#linearGradient3816"
       id="linearGradient3822"
       x1="60"
       y1="1021.7101"
       x2="60"
       y2="967.36218"
       gradientUnits="userSpaceOnUse" />
    <radialGradient
       inkscape:collect="always"
       xlink:href="#linearGradient3868"
       id="radialGradient3874"
       cx="60"
       cy="1020.1791"
       fx="60"
       fy="1020.1791"
       r="55.5"
       gradientTransform="matrix(-1.7037588e-8,-0.90090097,1.1711712,1.6068036e-5,-1134.8043,1071.3998)"
       gradientUnits="userSpaceOnUse" />
  </defs>
  <sodipodi:namedview
     id="base"
     pagecolor="#ffffff"
     bordercolor="#666666"
     borderopacity="1.0"
     inkscape:pageopacity="0"
     inkscape:pageshadow="2"
     inkscape:zoom="8.2333333"
     inkscape:cx="35.101214"
     inkscape:cy="44.128033"
     inkscape:document-units="px"
     inkscape:current-layer="layer4"
     showgrid="true"
     inkscape:window-width="1498"
     inkscape:window-height="916"
     inkscape:window-x="66"
     inkscape:window-y="55"
     inkscape:window-maximized="0"
     showguides="false"
     inkscape:guide-bbox="true"
     inkscape:snap-grids="true"
     inkscape:snap-object-midpoints="true"
     inkscape:snap-bbox="false"
     inkscape:snap-to-guides="false"
     inkscape:snap-center="true"
     inkscape:snap-nodes="true"
     inkscape:object-nodes="true"
     inkscape:snap-smooth-nodes="true"
     inkscape:snap-midpoints="true">
    <inkscape:grid
       type="xygrid"
       id="grid4150"
       empspacing="5"
       visible="true"
       enabled="true"
       snapvisiblegridlinesonly="true" />
  </sodipodi:namedview>
  <metadata
     id="metadata4147">
    <rdf:RDF>
      <cc:Work
         rdf:about="">
        <dc:format>image/svg+xml</dc:format>
        <dc:type
           rdf:resource="http://purl.org/dc/dcmitype/StillImage" />
        <dc:title />
      </cc:Work>
    </rdf:RDF>
  </metadata>
  <g
     inkscape:groupmode="layer"
     id="layer4"
     inkscape:label="Symbol"
     style="display:inline">
    <path
       inkscape:connector-curvature="0"
       id="path7368"
       d="m 46.477875,21.32619 c -0.724568,-0.004 -1.486223,0.0333 -2.273326,0.13418 -12.570411,1.61022 -12.183259,12.34495 -12.183259,12.34495 -5.148638,0.871 -9.358156,5.3441 -9.358156,10.0191 0,4.675 5.380445,8.816 9.887863,10.0192 2.681172,0.7156 6.201985,0 6.201985,0 1.591572,2.7932 6.823925,4.6517 10.483783,4.6517 5.967601,0 12.094976,-1.968 13.507527,-4.6517 0,0 24.710801,1.968 29.840165,0 7.467183,-2.8651 5.144959,-11.8233 0.176569,-14.8498 -4.968397,-3.0265 -11.476991,-0.8946 -11.476991,-0.8946 0,0 -0.01441,-6.1801 -7.040688,-9.1245 -7.026266,-2.94438 -12.97782,3.5782 -12.97782,3.5782 0,0 -3.919083,-11.16006 -14.787652,-11.22673 z"
       style="fill:#00ffff;fill-opacity:1;stroke:#000000;stroke-width:2.50000000000000000;stroke-miterlimit:4;stroke-opacity:1;stroke-dasharray:none;display:inline"
       sodipodi:nodetypes="cccsscscsscscc" />
  </g>
  <g
     inkscape:label="Ebene 1"
     inkscape:groupmode="layer"
     id="layer1"
     transform="translate(0,-972.36218)"
     style="display:inline"
     sodipodi:insensitive="true">
    <rect
       ry="10.000119"
       rx="10"
       y="977.36206"
       x="5"
       height="70.000114"
       width="110"
       id="rect3778"
       style="opacity:0.5;fill:url(#radialGradient3874);fill-opacity:1;stroke:none;display:inline" />
    <path
       style="opacity:0.5;fill:url(#linearGradient3822);fill-opacity:1;stroke:none;display:inline"
       d="m 15.818182,978.36218 88.363638,0 c 5.43927,0 9.81818,4 9.81818,11 0,0.98766 0,3 -1,7 -2,7.00002 -3.90909,8.68002 -8.81818,11.00002 -29.454547,10.44 -58.909093,10.44 -88.363638,0 C 10.90909,1005.0422 9,1003.3622 7,996.36218 c -1,-4 -1,-6 -1,-7 0,-7 4.37891,-11 9.818182,-11 z"
       id="rect3813"
       sodipodi:nodetypes="ccccccccc" />
  </g>
</svg>
