<?xml version="1.0" encoding="UTF-8" standalone="no"?>
<!-- Created with Inkscape (http://www.inkscape.org/) -->

<svg
   xmlns:dc="http://purl.org/dc/elements/1.1/"
   xmlns:cc="http://creativecommons.org/ns#"
   xmlns:rdf="http://www.w3.org/1999/02/22-rdf-syntax-ns#"
   xmlns:svg="http://www.w3.org/2000/svg"
   xmlns="http://www.w3.org/2000/svg"
   xmlns:xlink="http://www.w3.org/1999/xlink"
   xmlns:sodipodi="http://sodipodi.sourceforge.net/DTD/sodipodi-0.dtd"
   xmlns:inkscape="http://www.inkscape.org/namespaces/inkscape"
   width="240"
   height="160"
   id="svg2816"
   version="1.1"
   inkscape:version="0.92.4 (5da689c313, 2019-01-14)"
   sodipodi:docname="Playlist_msg.svg">
  <defs
     id="defs2818">
    <linearGradient
       inkscape:collect="always"
       id="linearGradient8120">
      <stop
         style="stop-color:#00ffff;stop-opacity:1;"
         offset="0"
         id="stop8122" />
      <stop
         style="stop-color:#00ffff;stop-opacity:0;"
         offset="1"
         id="stop8124" />
    </linearGradient>
    <linearGradient
       id="linearGradient3743">
      <stop
         id="stop3751"
         offset="0"
         style="stop-color:#f0c09a;stop-opacity:1;" />
      <stop
         style="stop-color:#a06020;stop-opacity:1;"
         offset="1"
         id="stop3747" />
    </linearGradient>
    <linearGradient
       id="linearGradient3735">
      <stop
         id="stop3753"
         offset="0"
         style="stop-color:#f0c09a;stop-opacity:1;" />
      <stop
         style="stop-color:#a06020;stop-opacity:1;"
         offset="1"
         id="stop3739" />
    </linearGradient>
    <inkscape:perspective
       sodipodi:type="inkscape:persp3d"
       inkscape:vp_x="0 : 526.18109 : 1"
       inkscape:vp_y="0 : 1000 : 0"
       inkscape:vp_z="744.09448 : 526.18109 : 1"
       inkscape:persp3d-origin="372.04724 : 350.78739 : 1"
       id="perspective2824" />
    <inkscape:perspective
       id="perspective3614"
       inkscape:persp3d-origin="0.5 : 0.33333333 : 1"
       inkscape:vp_z="1 : 0.5 : 1"
       inkscape:vp_y="0 : 1000 : 0"
       inkscape:vp_x="0 : 0.5 : 1"
       sodipodi:type="inkscape:persp3d" />
    <inkscape:perspective
       id="perspective3614-8"
       inkscape:persp3d-origin="0.5 : 0.33333333 : 1"
       inkscape:vp_z="1 : 0.5 : 1"
       inkscape:vp_y="0 : 1000 : 0"
       inkscape:vp_x="0 : 0.5 : 1"
       sodipodi:type="inkscape:persp3d" />
    <inkscape:perspective
       id="perspective3763"
       inkscape:persp3d-origin="0.5 : 0.33333333 : 1"
       inkscape:vp_z="1 : 0.5 : 1"
       inkscape:vp_y="0 : 1000 : 0"
       inkscape:vp_x="0 : 0.5 : 1"
       sodipodi:type="inkscape:persp3d" />
    <linearGradient
       inkscape:collect="always"
       xlink:href="#linearGradient3743-4"
       id="linearGradient3749-2"
       x1="123.89565"
       y1="997.96448"
       x2="123.89565"
       y2="882.70618"
       gradientUnits="userSpaceOnUse" />
    <linearGradient
       id="linearGradient3743-4">
      <stop
         style="stop-color:#a06020;stop-opacity:1;"
         offset="0"
         id="stop3745-5" />
      <stop
         id="stop3751-4"
         offset="0.5"
         style="stop-color:#f0c09a;stop-opacity:1;" />
      <stop
         style="stop-color:#a06020;stop-opacity:1;"
         offset="1"
         id="stop3747-6" />
    </linearGradient>
    <linearGradient
       inkscape:collect="always"
       xlink:href="#linearGradient3735-9"
       id="linearGradient3741-1"
       x1="123.89565"
       y1="997.96448"
       x2="123.89565"
       y2="882.70618"
       gradientUnits="userSpaceOnUse" />
    <linearGradient
       id="linearGradient3735-9">
      <stop
         style="stop-color:#a06020;stop-opacity:1;"
         offset="0"
         id="stop3737-1" />
      <stop
         id="stop3753-0"
         offset="0.5"
         style="stop-color:#f0c09a;stop-opacity:1;" />
      <stop
         style="stop-color:#a06020;stop-opacity:1;"
         offset="1"
         id="stop3739-2" />
    </linearGradient>
    <linearGradient
       inkscape:collect="always"
       xlink:href="#linearGradient3743-4"
       id="linearGradient3777"
       x1="123.89565"
       y1="997.96448"
       x2="123.89565"
       y2="882.70618"
       gradientUnits="userSpaceOnUse" />
    <linearGradient
       id="linearGradient3779">
      <stop
         style="stop-color:#a06020;stop-opacity:1;"
         offset="0"
         id="stop3781" />
      <stop
         id="stop3783"
         offset="0.5"
         style="stop-color:#f0c09a;stop-opacity:1;" />
      <stop
         style="stop-color:#a06020;stop-opacity:1;"
         offset="1"
         id="stop3785" />
    </linearGradient>
    <linearGradient
       inkscape:collect="always"
       xlink:href="#linearGradient3735-9"
       id="linearGradient3787"
       x1="123.89565"
       y1="997.96448"
       x2="123.89565"
       y2="882.70618"
       gradientUnits="userSpaceOnUse" />
    <linearGradient
       id="linearGradient3789">
      <stop
         style="stop-color:#a06020;stop-opacity:1;"
         offset="0"
         id="stop3791" />
      <stop
         id="stop3793"
         offset="0.5"
         style="stop-color:#f0c09a;stop-opacity:1;" />
      <stop
         style="stop-color:#a06020;stop-opacity:1;"
         offset="1"
         id="stop3795" />
    </linearGradient>
    <linearGradient
       inkscape:collect="always"
       xlink:href="#linearGradient3743-4"
       id="linearGradient3797"
       x1="123.89565"
       y1="997.96448"
       x2="123.89565"
       y2="882.70618"
       gradientUnits="userSpaceOnUse" />
    <linearGradient
       id="linearGradient3799">
      <stop
         style="stop-color:#a06020;stop-opacity:1;"
         offset="0"
         id="stop3801" />
      <stop
         id="stop3803"
         offset="0.5"
         style="stop-color:#f0c09a;stop-opacity:1;" />
      <stop
         style="stop-color:#a06020;stop-opacity:1;"
         offset="1"
         id="stop3805" />
    </linearGradient>
    <linearGradient
       inkscape:collect="always"
       xlink:href="#linearGradient3735-9"
       id="linearGradient3807"
       x1="123.89565"
       y1="997.96448"
       x2="123.89565"
       y2="882.70618"
       gradientUnits="userSpaceOnUse" />
    <linearGradient
       id="linearGradient3809">
      <stop
         style="stop-color:#a06020;stop-opacity:1;"
         offset="0"
         id="stop3811" />
      <stop
         id="stop3813"
         offset="0.5"
         style="stop-color:#f0c09a;stop-opacity:1;" />
      <stop
         style="stop-color:#a06020;stop-opacity:1;"
         offset="1"
         id="stop3815" />
    </linearGradient>
    <linearGradient
       gradientTransform="translate(4.1746574e-7,-864.30363)"
       y2="882.70618"
       x2="123.89565"
       y1="997.96448"
       x1="123.89565"
       gradientUnits="userSpaceOnUse"
       id="linearGradient3820"
       xlink:href="#linearGradient3743-4"
       inkscape:collect="always" />
    <linearGradient
       gradientTransform="translate(4.1746574e-7,-864.30363)"
       y2="882.70618"
       x2="123.89565"
       y1="997.96448"
       x1="123.89565"
       gradientUnits="userSpaceOnUse"
       id="linearGradient3822"
       xlink:href="#linearGradient3735-9"
       inkscape:collect="always" />
    <radialGradient
       inkscape:collect="always"
       xlink:href="#linearGradient8120"
       id="radialGradient8128"
       cx="124.00871"
       cy="940.42285"
       fx="124.00871"
       fy="940.42285"
       r="94.885002"
       gradientTransform="matrix(1,0,0,0.60051641,0,375.6835)"
       gradientUnits="userSpaceOnUse" />
  </defs>
  <sodipodi:namedview
     id="base"
     pagecolor="#ffffff"
     bordercolor="#666666"
     borderopacity="1.0"
     inkscape:pageopacity="0.0"
     inkscape:pageshadow="2"
     inkscape:zoom="4.0625"
     inkscape:cx="119.61092"
     inkscape:cy="80"
     inkscape:document-units="px"
     inkscape:current-layer="layer1"
     showgrid="true"
     inkscape:window-width="1485"
     inkscape:window-height="910"
     inkscape:window-x="357"
     inkscape:window-y="27"
     inkscape:window-maximized="0">
    <inkscape:grid
       type="xygrid"
       id="grid2826"
       empspacing="5"
       visible="true"
       enabled="true"
       snapvisiblegridlinesonly="true" />
  </sodipodi:namedview>
  <metadata
     id="metadata2821">
    <rdf:RDF>
      <cc:Work
         rdf:about="">
        <dc:format>image/svg+xml</dc:format>
        <dc:type
           rdf:resource="http://purl.org/dc/dcmitype/StillImage" />
        <dc:title />
      </cc:Work>
    </rdf:RDF>
  </metadata>
  <g
     inkscape:label="Ebene 1"
     inkscape:groupmode="layer"
     id="layer1"
     transform="translate(0,-892.36218)"
     style="display:inline">
    <g
       aria-label="Select
Music"
       transform="scale(0.96855697,1.0324638)"
       style="font-style:normal;font-variant:normal;font-weight:normal;font-stretch:normal;line-height:0%;font-family:'URW Gothic L';-inkscape-font-specification:'URW Gothic L';text-align:center;writing-mode:lr-tb;text-anchor:middle;fill:#00ffff;fill-opacity:1;stroke:#000000;stroke-width:2.5;stroke-linecap:butt;stroke-miterlimit:4;stroke-dasharray:none;stroke-opacity:1"
       id="text2828">
      <path
         d="m 29.174214,918.56686 c 0.32,3.712 1.152,6.08 3.072,8.576 2.816,3.648 7.488,5.76 12.48,5.76 8.512,0 15.104,-6.592 15.104,-15.168 0,-3.904 -1.472,-7.296 -4.224,-9.856 -1.856,-1.728 -3.392,-2.56 -8,-4.288 -4.48,-1.664 -4.608,-1.728 -5.248,-2.112 -1.728,-1.088 -2.624,-2.56 -2.624,-4.288 0,-2.816 1.984,-4.8 4.864,-4.8 2.944,0 4.736,1.792 4.992,4.992 h 9.088 c -0.192,-3.584 -1.024,-6.016 -2.944,-8.384 -2.56,-3.2 -6.656,-5.056 -11.072,-5.056 -7.616,0 -13.76,5.952 -13.76,13.44 0,5.952 3.52,10.496 9.856,12.864 6.336,2.368 6.72,2.56 8.192,3.648 1.408,1.152 2.176,2.816 2.176,4.8 0,3.392 -2.624,5.76 -6.4,5.76 -3.904,0 -6.016,-1.92 -6.4,-5.888 z"
         style="font-style:normal;font-variant:normal;font-weight:bold;font-stretch:normal;font-size:64px;line-height:1;font-family:'URW Gothic L';-inkscape-font-specification:'URW Gothic L Semi-Bold';fill:#00ffff;fill-opacity:1;stroke:#000000;stroke-width:2.5;stroke-miterlimit:4;stroke-dasharray:none;stroke-opacity:1"
         id="path4670" />
      <path
         d="m 100.12021,918.11886 c 0.256,-1.216 0.32,-1.984 0.32,-3.264 0,-11.008 -7.743996,-19.072 -18.303996,-19.072 -10.432,0 -18.688,8.256 -18.688,18.688 0,10.368 8.384,18.432 19.2,18.432 5.824,0 10.368,-2.112 14.08,-6.4 1.344,-1.664 2.24,-3.136 2.816,-4.928 h -9.28 c -2.176,2.56 -4.288,3.52 -7.808,3.52 -5.056,0 -8.768,-2.688 -9.792,-6.976 z m -27.711996,-7.488 c 1.344,-4.544 4.8,-7.04 9.856,-7.04 5.248,0 8.704,2.496 9.792,7.04 z"
         style="font-style:normal;font-variant:normal;font-weight:bold;font-stretch:normal;font-size:64px;line-height:1;font-family:'URW Gothic L';-inkscape-font-specification:'URW Gothic L Semi-Bold';fill:#00ffff;fill-opacity:1;stroke:#000000;stroke-width:2.5;stroke-miterlimit:4;stroke-dasharray:none;stroke-opacity:1"
         id="path4672" />
      <path
         d="m 105.98421,932.07086 h 8.512 v -47.296 h -8.512 z"
         style="font-style:normal;font-variant:normal;font-weight:bold;font-stretch:normal;font-size:64px;line-height:1;font-family:'URW Gothic L';-inkscape-font-specification:'URW Gothic L Semi-Bold';fill:#00ffff;fill-opacity:1;stroke:#000000;stroke-width:2.5;stroke-miterlimit:4;stroke-dasharray:none;stroke-opacity:1"
         id="path4674" />
      <path
         d="m 156.49521,918.11886 c 0.256,-1.216 0.32,-1.984 0.32,-3.264 0,-11.008 -7.744,-19.072 -18.304,-19.072 -10.432,0 -18.688,8.256 -18.688,18.688 0,10.368 8.384,18.432 19.2,18.432 5.824,0 10.368,-2.112 14.08,-6.4 1.344,-1.664 2.24,-3.136 2.816,-4.928 h -9.28 c -2.176,2.56 -4.288,3.52 -7.808,3.52 -5.056,0 -8.768,-2.688 -9.792,-6.976 z m -27.712,-7.488 c 1.344,-4.544 4.8,-7.04 9.856,-7.04 5.248,0 8.704,2.496 9.792,7.04 z"
         style="font-style:normal;font-variant:normal;font-weight:bold;font-stretch:normal;font-size:64px;line-height:1;font-family:'URW Gothic L';-inkscape-font-specification:'URW Gothic L Semi-Bold';fill:#00ffff;fill-opacity:1;stroke:#000000;stroke-width:2.5;stroke-miterlimit:4;stroke-dasharray:none;stroke-opacity:1"
         id="path4676" />
      <path
         d="m 187.76721,920.42286 c -2.112,3.264 -4.544,4.672 -8.064,4.672 -5.888,0 -10.304,-4.608 -10.304,-10.816 0,-6.208 4.224,-10.688 10.112,-10.688 3.84,0 6.528,1.6 8.256,4.864 h 9.6 c -1.216,-3.584 -2.368,-5.44 -4.8,-7.68 -3.456,-3.2 -8.128,-4.992 -13.056,-4.992 -10.496,0 -18.688,8.128 -18.688,18.56 0,10.304 8.448,18.56 18.944,18.56 8.256,0 14.656,-4.544 17.6,-12.48 z"
         style="font-style:normal;font-variant:normal;font-weight:bold;font-stretch:normal;font-size:64px;line-height:1;font-family:'URW Gothic L';-inkscape-font-specification:'URW Gothic L Semi-Bold';fill:#00ffff;fill-opacity:1;stroke:#000000;stroke-width:2.5;stroke-miterlimit:4;stroke-dasharray:none;stroke-opacity:1"
         id="path4678" />
      <path
         d="m 204.63921,932.07086 h 8.512 v -27.712 h 5.12 v -7.744 h -5.12 v -11.84 h -8.512 v 11.84 h -4.16 v 7.744 h 4.16 z"
         style="font-style:normal;font-variant:normal;font-weight:bold;font-stretch:normal;font-size:64px;line-height:1;font-family:'URW Gothic L';-inkscape-font-specification:'URW Gothic L Semi-Bold';fill:#00ffff;fill-opacity:1;stroke:#000000;stroke-width:2.5;stroke-miterlimit:4;stroke-dasharray:none;stroke-opacity:1"
         id="path4680" />
      <path
         d="m 37.817714,996.07086 h 8.768 v -35.456 l 12.352,35.456 h 7.168 l 12.352,-35.456 v 35.456 h 8.768 v -47.296 h -12.032 l -12.608,35.84 -12.736,-35.84 h -12.032 z"
         style="font-style:normal;font-variant:normal;font-weight:bold;font-stretch:normal;font-size:64px;line-height:1;font-family:'URW Gothic L';-inkscape-font-specification:'URW Gothic L Semi-Bold';fill:#00ffff;fill-opacity:1;stroke:#000000;stroke-width:2.5;stroke-miterlimit:4;stroke-dasharray:none;stroke-opacity:1"
         id="path4682" />
      <path
         d="m 126.09871,960.61486 h -8.512 v 16.704 c 0,4.672 -0.32,6.976 -1.344,8.512 -1.216,2.048 -3.584,3.264 -6.464,3.264 -2.176,0 -3.84,-0.704 -4.992,-2.24 -1.216,-1.536 -1.728,-4.16 -1.728,-8.896 v -17.344 h -8.511996 v 19.008 c 0,6.016 0.704,9.088 2.688,12.032 2.368,3.392 6.207996,5.248 10.815996,5.248 4.288,0 6.976,-1.088 10.176,-4.224 v 3.392 h 7.872 z"
         style="font-style:normal;font-variant:normal;font-weight:bold;font-stretch:normal;font-size:64px;line-height:1;font-family:'URW Gothic L';-inkscape-font-specification:'URW Gothic L Semi-Bold';fill:#00ffff;fill-opacity:1;stroke:#000000;stroke-width:2.5;stroke-miterlimit:4;stroke-dasharray:none;stroke-opacity:1"
         id="path4684" />
      <path
         d="m 130.68171,984.80686 c 0.384,3.456 0.96,5.248 2.368,7.168 2.304,3.072 6.336,4.928 10.624,4.928 7.104,0 12.672,-5.312 12.672,-12.096 0,-3.072 -1.152,-5.632 -3.328,-7.36 -1.344,-1.152 -3.456,-2.048 -6.528,-3.008 -3.456,-1.088 -3.456,-1.088 -4.288,-1.472 -1.152,-0.512 -1.728,-1.344 -1.728,-2.368 0,-1.728 1.408,-3.008 3.264,-3.008 1.792,0 2.944,0.96 3.328,2.816 h 8.32 c -0.128,-3.008 -0.832,-4.8 -2.56,-6.72 -2.24,-2.496 -5.568,-3.904 -9.088,-3.904 -6.592,0 -11.776,4.736 -11.776,10.816 0,5.184 2.816,8.128 9.856,10.496 3.264,1.088 3.52,1.216 4.416,1.792 1.024,0.64 1.6,1.6 1.6,2.752 0,1.984 -1.664,3.456 -3.84,3.456 -2.496,0 -3.904,-1.28 -4.736,-4.288 z"
         style="font-style:normal;font-variant:normal;font-weight:bold;font-stretch:normal;font-size:64px;line-height:1;font-family:'URW Gothic L';-inkscape-font-specification:'URW Gothic L Semi-Bold';fill:#00ffff;fill-opacity:1;stroke:#000000;stroke-width:2.5;stroke-miterlimit:4;stroke-dasharray:none;stroke-opacity:1"
         id="path4686" />
      <path
         d="m 161.04671,996.07086 h 8.512 v -35.456 h -8.512 z m 0,-39.296 h 8.512 v -8 h -8.512 z"
         style="font-style:normal;font-variant:normal;font-weight:bold;font-stretch:normal;font-size:64px;line-height:1;font-family:'URW Gothic L';-inkscape-font-specification:'URW Gothic L Semi-Bold';fill:#00ffff;fill-opacity:1;stroke:#000000;stroke-width:2.5;stroke-miterlimit:4;stroke-dasharray:none;stroke-opacity:1"
         id="path4688" />
      <path
         d="m 201.82971,984.42286 c -2.112,3.264 -4.544,4.672 -8.064,4.672 -5.888,0 -10.304,-4.608 -10.304,-10.816 0,-6.208 4.224,-10.688 10.112,-10.688 3.84,0 6.528,1.6 8.256,4.864 h 9.6 c -1.216,-3.584 -2.368,-5.44 -4.8,-7.68 -3.456,-3.2 -8.128,-4.992 -13.056,-4.992 -10.496,0 -18.688,8.128 -18.688,18.56 0,10.304 8.448,18.56 18.944,18.56 8.256,0 14.656,-4.544 17.6,-12.48 z"
         style="font-style:normal;font-variant:normal;font-weight:bold;font-stretch:normal;font-size:64px;line-height:1;font-family:'URW Gothic L';-inkscape-font-specification:'URW Gothic L Semi-Bold';fill:#00ffff;fill-opacity:1;stroke:#000000;stroke-width:2.5;stroke-miterlimit:4;stroke-dasharray:none;stroke-opacity:1"
         id="path4690" />
    </g>
  </g>
</svg>
