<?xml version="1.0" encoding="UTF-8" standalone="no"?>
<!-- Created with Inkscape (http://www.inkscape.org/) -->

<svg
   xmlns:dc="http://purl.org/dc/elements/1.1/"
   xmlns:cc="http://creativecommons.org/ns#"
   xmlns:rdf="http://www.w3.org/1999/02/22-rdf-syntax-ns#"
   xmlns:svg="http://www.w3.org/2000/svg"
   xmlns="http://www.w3.org/2000/svg"
   xmlns:sodipodi="http://sodipodi.sourceforge.net/DTD/sodipodi-0.dtd"
   xmlns:inkscape="http://www.inkscape.org/namespaces/inkscape"
   width="120"
   height="80"
   id="svg4142"
   version="1.1"
   inkscape:version="0.92.2 (5c3e80d, 2017-08-06)"
   sodipodi:docname="Cloud.svg">
  <defs
     id="defs4144" />
  <sodipodi:namedview
     id="base"
     pagecolor="#ffffff"
     bordercolor="#666666"
     borderopacity="1.0"
     inkscape:pageopacity="0.0"
     inkscape:pageshadow="2"
     inkscape:zoom="4.775"
     inkscape:cx="60"
     inkscape:cy="40"
     inkscape:document-units="px"
     inkscape:current-layer="layer1"
     showgrid="true"
     inkscape:window-width="1083"
     inkscape:window-height="638"
     inkscape:window-x="98"
     inkscape:window-y="61"
     inkscape:window-maximized="0">
    <inkscape:grid
       type="xygrid"
       id="grid4150"
       empspacing="5"
       visible="true"
       enabled="true"
       snapvisiblegridlinesonly="true" />
  </sodipodi:namedview>
  <metadata
     id="metadata4147">
    <rdf:RDF>
      <cc:Work
         rdf:about="">
        <dc:format>image/svg+xml</dc:format>
        <dc:type
           rdf:resource="http://purl.org/dc/dcmitype/StillImage" />
        <dc:title />
      </cc:Work>
    </rdf:RDF>
  </metadata>
  <g
     inkscape:label="Ebene 1"
     inkscape:groupmode="layer"
     id="layer1"
     transform="translate(0,-972.36218)"
     style="display:inline">
    <g
       style="fill:none;stroke:#00ffff;stroke-width:7.49785614;stroke-miterlimit:4;stroke-opacity:1;stroke-dasharray:none;display:inline"
       id="g7129"
       transform="matrix(0.66247512,0,0,0.67126847,17.618279,336.68407)">
      <g
         transform="matrix(1.0661169,0,0,1.0661169,476.47155,377.44467)"
         id="g4617"
         style="fill:none;stroke:#00ffff;stroke-width:7.03286457;stroke-miterlimit:4;stroke-opacity:1;stroke-dasharray:none" />
    </g>
    <path
       inkscape:connector-curvature="0"
       id="path7368"
       d="m 46.477875,993.68837 c -0.724568,-0.004 -1.486223,0.0333 -2.273326,0.13418 -12.570411,1.61022 -12.183259,12.34495 -12.183259,12.34495 -5.148638,0.871 -9.358156,5.3441 -9.358156,10.0191 0,4.675 5.380445,8.816 9.887863,10.0192 2.681172,0.7156 6.201985,0 6.201985,0 1.591572,2.7932 6.823925,4.6517 10.483783,4.6517 5.967601,0 12.094976,-1.968 13.507527,-4.6517 0,0 24.710801,1.968 29.840165,0 7.467183,-2.8651 5.144959,-11.8233 0.176569,-14.8498 -4.968397,-3.0265 -11.476991,-0.8946 -11.476991,-0.8946 0,0 -0.01441,-6.1801 -7.040688,-9.1245 -7.026266,-2.94438 -12.97782,3.5782 -12.97782,3.5782 0,0 -3.919083,-11.16006 -14.787652,-11.22673 z"
       style="fill:#00ffff;fill-opacity:1;stroke:none;display:inline"
       sodipodi:nodetypes="cccsscscsscscc" />
    <rect
       style="display:inline;opacity:1;fill:#00ffff;fill-opacity:0;fill-rule:nonzero;stroke:#00ffff;stroke-width:1;stroke-miterlimit:4;stroke-dasharray:none;stroke-opacity:1;paint-order:markers fill stroke"
       id="rect816"
       width="119"
       height="79"
       x="0.5"
       y="972.86218" />
  </g>
</svg>
