<?xml version="1.0" encoding="UTF-8" standalone="no"?>
<!-- Created with Inkscape (http://www.inkscape.org/) -->

<svg
   xmlns:dc="http://purl.org/dc/elements/1.1/"
   xmlns:cc="http://creativecommons.org/ns#"
   xmlns:rdf="http://www.w3.org/1999/02/22-rdf-syntax-ns#"
   xmlns:svg="http://www.w3.org/2000/svg"
   xmlns="http://www.w3.org/2000/svg"
   xmlns:sodipodi="http://sodipodi.sourceforge.net/DTD/sodipodi-0.dtd"
   xmlns:inkscape="http://www.inkscape.org/namespaces/inkscape"
   width="240"
   height="160"
   id="svg2816"
   version="1.1"
   inkscape:version="0.92.2 (5c3e80d, 2017-08-06)"
   sodipodi:docname="Playlist_msg.svg">
  <defs
     id="defs2818" />
  <sodipodi:namedview
     id="base"
     pagecolor="#ffffff"
     bordercolor="#666666"
     borderopacity="1.0"
     inkscape:pageopacity="0.0"
     inkscape:pageshadow="2"
     inkscape:zoom="1.9041667"
     inkscape:cx="111.59738"
     inkscape:cy="80"
     inkscape:document-units="px"
     inkscape:current-layer="layer1"
     showgrid="true"
     inkscape:window-width="1171"
     inkscape:window-height="791"
     inkscape:window-x="268"
     inkscape:window-y="71"
     inkscape:window-maximized="0">
    <inkscape:grid
       type="xygrid"
       id="grid2826"
       empspacing="5"
       visible="true"
       enabled="true"
       snapvisiblegridlinesonly="true" />
  </sodipodi:namedview>
  <metadata
     id="metadata2821">
    <rdf:RDF>
      <cc:Work
         rdf:about="">
        <dc:format>image/svg+xml</dc:format>
        <dc:type
           rdf:resource="http://purl.org/dc/dcmitype/StillImage" />
        <dc:title />
      </cc:Work>
    </rdf:RDF>
  </metadata>
  <g
     inkscape:label="Ebene 1"
     inkscape:groupmode="layer"
     id="layer1"
     transform="translate(0,-892.36218)"
     style="display:inline">
    <g
       aria-label="Select Music"
       transform="scale(0.96855697,1.0324638)"
       style="font-style:normal;font-variant:normal;font-weight:normal;font-stretch:normal;line-height:0%;font-family:'URW Gothic L';-inkscape-font-specification:'URW Gothic L';text-align:center;writing-mode:lr-tb;text-anchor:middle;fill:#00ffff;fill-opacity:1;stroke:#00ffff;stroke-width:2;stroke-linecap:butt;stroke-miterlimit:4;stroke-dasharray:none;stroke-opacity:1"
       id="text2828">
      <path
         d="m 29.623714,918.82286 c 0.448,8.512 6.272,14.08 14.784,14.08 8.192,0 14.272,-5.952 14.272,-14.016 0,-4.16 -1.728,-7.872 -4.736,-10.112 -1.92,-1.408 -3.904,-2.304 -8.768,-3.776 -4.288,-1.28 -5.696,-1.856 -6.976,-2.944 -1.344,-1.216 -2.24,-3.328 -2.24,-5.504 0,-4.736 3.456,-8.256 8.192,-8.256 4.8,0 8.128,3.328 8.448,8.448 h 4.928 c -0.192,-7.68 -5.504,-12.8 -13.248,-12.8 -7.616,0 -13.12,5.376 -13.12,12.736 0,3.264 1.216,6.4 3.328,8.384 1.856,1.792 3.328,2.496 8.832,4.16 3.712,1.152 5.76,2.048 7.296,3.136 2.112,1.472 3.264,3.904 3.264,6.784 0,5.44 -3.968,9.408 -9.344,9.408 -3.008,0 -5.888,-1.344 -7.616,-3.52 -1.344,-1.664 -1.92,-3.264 -2.24,-6.208 z"
         style="font-size:64px;line-height:1;fill:#00ffff;fill-opacity:1;stroke:#00ffff;stroke-opacity:1"
         id="path5240" />
      <path
         d="m 99.194714,916.13486 c 0,-4.8 -0.64,-7.744 -2.368,-10.816 -3.136,-5.568 -9.216,-9.088 -15.872,-9.088 -10.176,0 -18.176,8 -18.176,18.176 0,10.368 8.128,18.496 18.496,18.496 4.48,0 8.704,-1.664 11.904,-4.672 2.496,-2.368 4.16,-4.8 5.12,-7.68 h -4.928 c -1.984,4.8 -6.912,8 -12.224,8 -7.168,0 -13.248,-5.504 -13.632,-12.416 z m -31.552,-4.288 c 1.28,-6.72 6.592,-11.264 13.248,-11.264 6.784,0 11.968,4.288 13.568,11.264 z"
         style="font-size:64px;line-height:1;fill:#00ffff;fill-opacity:1;stroke:#00ffff;stroke-opacity:1"
         id="path5242" />
      <path
         d="m 105.74771,932.07086 h 4.736 v -47.296 h -4.736 z"
         style="font-size:64px;line-height:1;fill:#00ffff;fill-opacity:1;stroke:#00ffff;stroke-opacity:1"
         id="path5244" />
      <path
         d="m 153.56971,916.13486 c 0,-4.8 -0.64,-7.744 -2.368,-10.816 -3.136,-5.568 -9.216,-9.088 -15.872,-9.088 -10.176,0 -18.176,8 -18.176,18.176 0,10.368 8.128,18.496 18.496,18.496 4.48,0 8.704,-1.664 11.904,-4.672 2.496,-2.368 4.16,-4.8 5.12,-7.68 h -4.928 c -1.984,4.8 -6.912,8 -12.224,8 -7.168,0 -13.248,-5.504 -13.632,-12.416 z m -31.552,-4.288 c 1.28,-6.72 6.592,-11.264 13.248,-11.264 6.784,0 11.968,4.288 13.568,11.264 z"
         style="font-size:64px;line-height:1;fill:#00ffff;fill-opacity:1;stroke:#00ffff;stroke-opacity:1"
         id="path5246" />
      <path
         d="m 189.62671,921.76686 c -3.648,4.864 -7.04,6.784 -11.968,6.784 -7.872,0 -14.08,-6.208 -14.08,-13.952 0,-7.872 6.08,-14.016 13.888,-14.016 5.184,0 9.472,2.496 12.16,7.104 h 5.312 c -2.816,-7.04 -9.536,-11.456 -17.408,-11.456 -10.496,0 -18.752,8.064 -18.752,18.24 0,10.432 8.32,18.432 19.072,18.432 4.352,0 8.384,-1.408 11.648,-3.968 2.24,-1.792 3.584,-3.52 5.504,-7.168 z"
         style="font-size:64px;line-height:1;fill:#00ffff;fill-opacity:1;stroke:#00ffff;stroke-opacity:1"
         id="path5248" />
      <path
         d="m 205.78571,932.07086 h 4.736 v -30.72 h 7.872 v -4.288 h -7.872 v -12.288 h -4.736 v 12.288 h -7.552 v 4.288 h 7.552 z"
         style="font-size:64px;line-height:1;fill:#00ffff;fill-opacity:1;stroke:#00ffff;stroke-opacity:1"
         id="path5250" />
      <path
         d="m 40.204714,996.07086 h 4.736 v -42.112 l 17.728,42.112 h 4.096 l 17.792,-42.112 v 42.112 h 4.736 v -47.296 h -7.36 l -17.152,40.256 -17.216,-40.256 h -7.36 z"
         style="font-size:64px;line-height:1;fill:#00ffff;fill-opacity:1;stroke:#00ffff;stroke-opacity:1"
         id="path5252" />
      <path
         d="m 129.09571,961.06286 h -4.736 v 17.984 c 0,4.288 -0.64,6.976 -2.112,9.152 -1.984,2.752 -5.12,4.352 -8.768,4.352 -3.904,0 -7.232,-1.6 -8.832,-4.416 -1.088,-1.792 -1.664,-4.608 -1.664,-8.192 v -18.88 h -4.735996 v 18.88 c 0,5.184 0.896,8.832 2.751996,11.392 2.624,3.648 6.848,5.568 12.096,5.568 5.44,0 8.896,-1.92 11.264,-6.272 v 5.44 h 4.736 z"
         style="font-size:64px;line-height:1;fill:#00ffff;fill-opacity:1;stroke:#00ffff;stroke-opacity:1"
         id="path5254" />
      <path
         d="m 134.24271,985.76686 c 0.064,6.784 4.544,11.136 11.264,11.136 6.272,0 10.688,-4.48 10.688,-10.88 0,-4.288 -1.984,-7.232 -6.08,-8.96 -5.312,-2.176 -5.568,-2.304 -6.592,-2.816 -2.176,-1.088 -3.2,-2.56 -3.2,-4.608 0,-2.816 2.24,-5.056 5.056,-5.056 3.072,0 4.864,1.792 5.12,5.12 h 4.8 c -0.192,-5.632 -4.224,-9.472 -9.856,-9.472 -5.696,0 -9.92,4.16 -9.92,9.856 0,2.496 0.896,4.672 2.624,6.272 1.472,1.344 1.536,1.344 6.464,3.392 2.112,0.832 3.648,1.6 4.544,2.176 1.408,0.96 2.24,2.624 2.24,4.544 0,3.52 -2.496,6.08 -5.888,6.08 -3.904,0 -6.336,-2.496 -6.592,-6.784 z"
         style="font-size:64px;line-height:1;fill:#00ffff;fill-opacity:1;stroke:#00ffff;stroke-opacity:1"
         id="path5256" />
      <path
         d="m 161.99771,996.07086 h 4.736 v -35.008 h -4.736 z m 0,-39.232 h 4.736 v -8.064 h -4.736 z"
         style="font-size:64px;line-height:1;fill:#00ffff;fill-opacity:1;stroke:#00ffff;stroke-opacity:1"
         id="path5258" />
      <path
         d="m 204.25171,985.76686 c -3.648,4.864 -7.04,6.784 -11.968,6.784 -7.872,0 -14.08,-6.208 -14.08,-13.952 0,-7.872 6.08,-14.016 13.888,-14.016 5.184,0 9.472,2.496 12.16,7.104 h 5.312 c -2.816,-7.04 -9.536,-11.456 -17.408,-11.456 -10.496,0 -18.752,8.064 -18.752,18.24 0,10.432 8.32,18.432 19.072,18.432 4.352,0 8.384,-1.408 11.648,-3.968 2.24,-1.792 3.584,-3.52 5.504,-7.168 z"
         style="font-size:64px;line-height:1;fill:#00ffff;fill-opacity:1;stroke:#00ffff;stroke-opacity:1"
         id="path5260" />
    </g>
  </g>
</svg>
