<?xml version="1.0" encoding="UTF-8" standalone="no"?>
<!-- Created with Inkscape (http://www.inkscape.org/) -->

<svg
   xmlns:osb="http://www.openswatchbook.org/uri/2009/osb"
   xmlns:dc="http://purl.org/dc/elements/1.1/"
   xmlns:cc="http://creativecommons.org/ns#"
   xmlns:rdf="http://www.w3.org/1999/02/22-rdf-syntax-ns#"
   xmlns:svg="http://www.w3.org/2000/svg"
   xmlns="http://www.w3.org/2000/svg"
   xmlns:sodipodi="http://sodipodi.sourceforge.net/DTD/sodipodi-0.dtd"
   xmlns:inkscape="http://www.inkscape.org/namespaces/inkscape"
   width="120"
   height="80"
   id="svg4142"
   version="1.1"
   inkscape:version="0.48.4 r9939"
   sodipodi:docname="Empty.svg">
  <defs
     id="defs4144">
    <filter
       color-interpolation-filters="sRGB"
       inkscape:collect="always"
       id="filter4650-7-6">
      <feGaussianBlur
         inkscape:collect="always"
         stdDeviation="1.8999999"
         id="feGaussianBlur4652-1-0" />
    </filter>
    <linearGradient
       id="linearGradient5409"
       osb:paint="solid">
      <stop
         style="stop-color:#000000;stop-opacity:0;"
         offset="0"
         id="stop5411" />
    </linearGradient>
    <linearGradient
       id="linearGradient5409-2"
       osb:paint="solid">
      <stop
         style="stop-color:#000000;stop-opacity:0;"
         offset="0"
         id="stop5411-4" />
    </linearGradient>
    <filter
       inkscape:collect="always"
       id="filter4447-4"
       x="-0.10462176"
       width="1.2092435"
       y="-0.12891427"
       height="1.2578285"
       color-interpolation-filters="sRGB">
      <feGaussianBlur
         inkscape:collect="always"
         stdDeviation="4.6110333"
         id="feGaussianBlur4449-3" />
    </filter>
    <filter
       inkscape:collect="always"
       id="filter4557"
       x="-0.071881693"
       width="1.1437634"
       y="-0.14447557"
       height="1.2889511">
      <feGaussianBlur
         inkscape:collect="always"
         stdDeviation="2.2375304"
         id="feGaussianBlur4559" />
    </filter>
  </defs>
  <sodipodi:namedview
     id="base"
     pagecolor="#ffffff"
     bordercolor="#666666"
     borderopacity="1.0"
     inkscape:pageopacity="0.0"
     inkscape:pageshadow="2"
     inkscape:zoom="8.1480195"
     inkscape:cx="60"
     inkscape:cy="40.000102"
     inkscape:document-units="px"
     inkscape:current-layer="layer3"
     showgrid="true"
     inkscape:window-width="1498"
     inkscape:window-height="876"
     inkscape:window-x="98"
     inkscape:window-y="61"
     inkscape:window-maximized="0">
    <inkscape:grid
       type="xygrid"
       id="grid4150"
       empspacing="5"
       visible="true"
       enabled="true"
       snapvisiblegridlinesonly="true" />
  </sodipodi:namedview>
  <metadata
     id="metadata4147">
    <rdf:RDF>
      <cc:Work
         rdf:about="">
        <dc:format>image/svg+xml</dc:format>
        <dc:type
           rdf:resource="http://purl.org/dc/dcmitype/StillImage" />
        <dc:title></dc:title>
      </cc:Work>
    </rdf:RDF>
  </metadata>
  <g
     inkscape:groupmode="layer"
     id="layer3"
     inkscape:label="Schatten"
     style="display:inline">
    <rect
       ry="14.499992"
       rx="15"
       y="4.9998808"
       x="10"
       height="67.666664"
       width="100"
       id="rect4057"
       style="fill:none;stroke:#00ffff;stroke-width:5.89915085;stroke-linejoin:miter;stroke-miterlimit:4;stroke-opacity:1;stroke-dasharray:none;display:inline;filter:url(#filter4650-7-6)"
       transform="matrix(1,0,0,1.0344833,0,-0.17241229)" />
    <path
       inkscape:connector-curvature="0"
       id="path7368-4"
       d="m 46.477875,21.32619 c -0.724568,-0.004 -1.486223,0.0333 -2.273326,0.13418 -12.570411,1.61022 -12.183259,12.34495 -12.183259,12.34495 -5.148638,0.871 -9.358156,5.3441 -9.358156,10.0191 0,4.675 5.380445,8.816 9.887863,10.0192 2.681172,0.7156 6.201985,0 6.201985,0 1.591572,2.7932 6.823925,4.6517 10.483783,4.6517 5.967601,0 12.094976,-1.968 13.507527,-4.6517 0,0 24.710801,1.968 29.840165,0 7.467183,-2.8651 5.144959,-11.8233 0.176569,-14.8498 -4.968397,-3.0265 -11.476991,-0.8946 -11.476991,-0.8946 0,0 -0.01441,-6.1801 -7.040688,-9.1245 -7.026266,-2.94438 -12.97782,3.5782 -12.97782,3.5782 0,0 -3.919083,-11.16006 -14.787652,-11.22673 z"
       style="fill:none;stroke:#00ffff;stroke-width:5;stroke-miterlimit:4;stroke-opacity:1;stroke-dasharray:none;display:inline;filter:url(#filter4557)"
       sodipodi:nodetypes="cccsscscsscscc" />
  </g>
  <g
     inkscape:label="Ebene 1"
     inkscape:groupmode="layer"
     id="layer1"
     transform="translate(0,-972.36218)"
     style="display:inline">
    <rect
       style="fill:none;stroke:#00ffff;stroke-width:5.00000048;stroke-linejoin:miter;stroke-miterlimit:4;stroke-opacity:1;stroke-dasharray:none;display:inline"
       id="rect3759"
       width="100"
       height="70.000031"
       x="10"
       y="977.36218"
       rx="15"
       ry="15.000002" />
    <g
       style="fill:none;stroke:#00ffff;stroke-width:7.49785614;stroke-miterlimit:4;stroke-opacity:1;stroke-dasharray:none;display:inline"
       id="g7129"
       transform="matrix(0.66247512,0,0,0.67126847,17.618279,336.68407)">
      <g
         transform="matrix(1.0661169,0,0,1.0661169,476.47155,377.44467)"
         id="g4617"
         style="fill:none;stroke:#00ffff;stroke-width:7.03286457;stroke-miterlimit:4;stroke-opacity:1;stroke-dasharray:none" />
    </g>
    <path
       inkscape:connector-curvature="0"
       id="path7368"
       d="m 46.477875,993.68837 c -0.724568,-0.004 -1.486223,0.0333 -2.273326,0.13418 -12.570411,1.61022 -12.183259,12.34495 -12.183259,12.34495 -5.148638,0.871 -9.358156,5.3441 -9.358156,10.0191 0,4.675 5.380445,8.816 9.887863,10.0192 2.681172,0.7156 6.201985,0 6.201985,0 1.591572,2.7932 6.823925,4.6517 10.483783,4.6517 5.967601,0 12.094976,-1.968 13.507527,-4.6517 0,0 24.710801,1.968 29.840165,0 7.467183,-2.8651 5.144959,-11.8233 0.176569,-14.8498 -4.968397,-3.0265 -11.476991,-0.8946 -11.476991,-0.8946 0,0 -0.01441,-6.1801 -7.040688,-9.1245 -7.026266,-2.94438 -12.97782,3.5782 -12.97782,3.5782 0,0 -3.919083,-11.16006 -14.787652,-11.22673 z"
       style="fill:none;stroke:#00ffff;stroke-width:5;stroke-miterlimit:4;stroke-opacity:1;stroke-dasharray:none;display:inline"
       sodipodi:nodetypes="cccsscscsscscc" />
  </g>
  <g
     inkscape:groupmode="layer"
     id="layer2"
     inkscape:label="Higlight"
     style="opacity:0.72000002;display:inline">
    <rect
       ry="15.000002"
       rx="15"
       y="4.9998808"
       x="10"
       height="70.000031"
       width="100"
       id="rect3927"
       style="fill:none;stroke:#ffffff;stroke-width:1.5;stroke-linejoin:miter;stroke-miterlimit:4;stroke-opacity:1;stroke-dasharray:none;display:inline" />
    <path
       inkscape:connector-curvature="0"
       id="path7368-1"
       d="m 46.477875,21.32619 c -0.724568,-0.004 -1.486223,0.0333 -2.273326,0.13418 -12.570411,1.61022 -12.183259,12.34495 -12.183259,12.34495 -5.148638,0.871 -9.358156,5.3441 -9.358156,10.0191 0,4.675 5.380445,8.816 9.887863,10.0192 2.681172,0.7156 6.201985,0 6.201985,0 1.591572,2.7932 6.823925,4.6517 10.483783,4.6517 5.967601,0 12.094976,-1.968 13.507527,-4.6517 0,0 24.710801,1.968 29.840165,0 7.467183,-2.8651 5.144959,-11.8233 0.176569,-14.8498 -4.968397,-3.0265 -11.476991,-0.8946 -11.476991,-0.8946 0,0 -0.01441,-6.1801 -7.040688,-9.1245 -7.026266,-2.94438 -12.97782,3.5782 -12.97782,3.5782 0,0 -3.919083,-11.16006 -14.787652,-11.22673 z"
       style="fill:none;stroke:#ffffff;stroke-width:1.5;stroke-miterlimit:4;stroke-opacity:1;stroke-dasharray:none;display:inline"
       sodipodi:nodetypes="cccsscscsscscc" />
  </g>
</svg>
