<?xml version="1.0" encoding="UTF-8"?>
<!-- Created with Inkscape (http://www.inkscape.org/) -->
<svg id="svg2816" width="240" height="160" version="1.1" xmlns="http://www.w3.org/2000/svg" xmlns:cc="http://creativecommons.org/ns#" xmlns:dc="http://purl.org/dc/elements/1.1/" xmlns:rdf="http://www.w3.org/1999/02/22-rdf-syntax-ns#">
 <defs id="defs2818">
  <filter id="filter5523">
   <feGaussianBlur id="feGaussianBlur5525" stdDeviation="1.862793"/>
  </filter>
 </defs>
 <metadata id="metadata2821">
  <rdf:RDF>
   <cc:Work rdf:about="">
    <dc:format>image/svg+xml</dc:format>
    <dc:type rdf:resource="http://purl.org/dc/dcmitype/StillImage"/>
    <dc:title/>
   </cc:Work>
  </rdf:RDF>
 </metadata>
 <g id="layer3">
  <g id="text4282-7" fill="#0ff" filter="url(#filter5523)" stroke="#0ff">
   <path id="path5528" d="m20.988 56.7 1.1-1.2h18.4c1.6 9e-6 3.1833-0.73332 4.75-2.2 1.5666-1.5 2.35-3.1833 2.35-5.05h9.7c-3.7e-5 2.4-0.48337 4.6333-1.45 6.7-0.9667 2.0333-2.2334 3.8-3.8 5.3-1.5334 1.4667-3.2834 2.6333-5.25 3.5-1.9334 0.83333-3.8834 1.25-5.85 1.25h-18.85l-1.1-1.2v-7.1m28.2-6.7c-0.2667 1.5667-1.2667 3.1667-3 4.8-1.7334 1.6333-3.9167 2.45-6.55 2.45h-16.9v6h16.45c2.4 0.03334 4.2833-0.16666 5.65-0.6 1.4-0.43333 2.7-1.0667 3.9-1.9 1.2-0.86666 2.2333-1.8167 3.1-2.85 0.86664-1.0333 1.5666-2.0667 2.1-3.1 0.5333-1.0333 0.91663-1.9333 1.15-2.7 0.2333-0.79999 0.34996-1.5 0.35-2.1h-6.25m8.1-11.45-1.1 1.2h-18.4c-1.6 2.5e-5 -3.1833 0.70002-4.75 2.1-1.5667 1.4-2.35 3.0334-2.35 4.9h-9.7c0-2.4 0.48333-4.6166 1.45-6.65 0.96666-2.0666 2.2167-3.8333 3.75-5.3 1.5667-1.5 3.3167-2.6666 5.25-3.5 1.9667-0.86663 3.9333-1.3 5.9-1.3h18.85l1.1 1.2v7.35m-28.2 6.45c0.26666-1.5666 1.2667-3.1166 3-4.65 1.7333-1.5666 3.9167-2.35 6.55-2.35h16.9v-6.25h-16.45c-2.4-0.0333-4.3 0.1667-5.7 0.6-1.3667 0.43337-2.65 1.0834-3.85 1.95-1.2 0.83336-2.2333 1.7667-3.1 2.8-0.86667 1.0334-1.5667 2.0667-2.1 3.1-0.53334 1.0334-0.91667 1.95-1.15 2.75-0.23334 0.76669-0.35 1.45-0.35 2.05h6.25" style=""/>
   <path id="path5530" d="m87.838 42.5h-28.35l-1 0.75v21l1 0.75h30.6l1.05-0.75v-7.75l-1-1.2h-21.5v-2.8h8.6c1.6666-0.09999 3.1-0.41665 4.3-0.95 1.2333-0.56665 2.2333-1.2 3-1.9 0.79997-0.73332 1.55-1.8 2.25-3.2 0.69997-1.4 1.05-2.7166 1.05-3.95m-27.6 1.75h25.3c-0.23336 1.0334-0.73336 2.05-1.5 3.05-0.76669 0.96668-1.6834 1.7667-2.75 2.4-1.0667 0.60002-2.4834 0.95001-4.25 1.05h-10.15v6.3h22.5v6.2h-29.15v-19m-0.75-4.5-1-0.75v-8.25l1-0.75h30.65l1 0.75v8.25l-1 0.75h-30.65m29.9-1.75v-6.25h-29.15v6.25h29.15" style=""/>
   <path id="path5532" d="m114.83 56.5v7.3l-1.1 1.2h-12.65c-0.80001 0-1.7167-0.25-2.75-0.75-1-0.53333-1.9667-1.2167-2.9-2.05-0.9-0.86666-1.6667-1.85-2.3-2.95-0.63334-1.1333-0.95-2.3-0.95-3.5v-24.55l1.1-1.2h7.85l1.1 1.2v23.45l0.75 0.65h10.75l1.1 1.2m-1.75 0.55h-10.4c-0.43335-0.03332-0.90001-0.24999-1.4-0.65-0.50001-0.43332-0.76668-1.0333-0.8-1.8v-22.85h-6.55v23.4c-2e-6 0.76668 0.18333 1.5833 0.55 2.45 0.36666 0.83334 0.88333 1.6667 1.55 2.5 0.7 0.8 1.55 1.5167 2.55 2.15 1.0333 0.63334 2.2 0.96667 3.5 1h11v-6.2" style=""/>
   <path id="path5534" d="m145.16 42.5h-28.35l-1 0.75v21l1 0.75h30.6l1.05-0.75v-7.75l-1-1.2h-21.5v-2.8h8.6c1.6666-0.09999 3.1-0.41665 4.3-0.95 1.2333-0.56665 2.2333-1.2 3-1.9 0.79997-0.73332 1.55-1.8 2.25-3.2 0.69997-1.4 1.05-2.7166 1.05-3.95m-27.6 1.75h25.3c-0.23336 1.0334-0.73336 2.05-1.5 3.05-0.76669 0.96668-1.6834 1.7667-2.75 2.4-1.0667 0.60002-2.4834 0.95001-4.25 1.05h-10.15v6.3h22.5v6.2h-29.15v-19m-0.75-4.5-1-0.75v-8.25l1-0.75h30.65l1 0.75v8.25l-1 0.75h-30.65m29.9-1.75v-6.25h-29.15v6.25h29.15" style=""/>
   <path id="path5536" d="m180.5 39.7h-13.85c-1.0334 2.5e-5 -1.9334 0.18336-2.7 0.55-0.73335 0.33336-1.4667 0.88336-2.2 1.65-0.70002 0.73336-1.2334 1.5667-1.6 2.5-0.36668 0.93335-0.55001 2.0167-0.55 3.25-1e-5 1.0334 0.18332 2.0167 0.55 2.95 0.36665 0.93335 0.89998 1.7833 1.6 2.55 0.73332 0.73334 1.4666 1.2833 2.2 1.65 0.76665 0.33334 1.6666 0.50001 2.7 0.5h13.85v8.95l-1.05 0.75h-13.25c-1.6334 0-3.5667-0.43333-5.8-1.3-2.2334-0.86666-4.15-2.0833-5.75-3.65-1.5667-1.6-2.8167-3.4667-3.75-5.6-0.93334-2.1333-1.4-4.4-1.4-6.8 0-2.6 0.46666-4.9666 1.4-7.1 0.93333-2.1333 2.1833-3.9833 3.75-5.55 1.6-1.6 3.5166-2.8333 5.75-3.7 2.2333-0.86663 4.1666-1.3 5.8-1.3h13.25l1.05 0.75v8.95m-29.2 7.95c-1e-5 2.4667 0.54999 4.8 1.65 7 0.53333 0.93334 1.15 1.8667 1.85 2.8 0.73332 0.93334 1.6167 1.8167 2.65 2.65 1.0666 0.8 2.3333 1.5 3.8 2.1 1.5 0.6 3.2333 0.95 5.2 1.05h12.25v-6.2h-11.95c-2.1334-0.19999-3.8167-0.76666-5.05-1.7-1.2334-0.93332-2.2167-2.1-2.95-3.5-0.60001-1.3-0.90001-2.7-0.9-4.2-1e-5 -1.7 0.29999-3.2 0.9-4.5 0.73332-1.4 1.7166-2.5666 2.95-3.5 1.2333-0.93331 2.9166-1.5 5.05-1.7h11.95v-6.2h-12.25c-1.9667 0.10003-3.7 0.45003-5.2 1.05-1.4667 0.60003-2.7334 1.3167-3.8 2.15-1.0333 0.80003-1.9167 1.6667-2.65 2.6-0.70001 0.93336-1.3167 1.8667-1.85 2.8-1.1 2.2-1.65 4.6334-1.65 7.3" style=""/>
   <path id="path5538" d="m181.54 31.2 1.1-1.2h11.55l1.1 1.2v7.35l-1.1 1.2h-11.55l-1.1-1.2v-7.35m1.75 6.8h10.25v-6.25h-10.25v6.25m36.25 1.75h-11.2c-0.5667 2.5e-5 -0.85003 0.26669-0.85 0.8v23.25l-1.15 1.2h-7.85l-1.1-1.2v-24.55c-2e-5 -1.2 0.31665-2.35 0.95-3.45 0.63331-1.1333 1.4-2.1166 2.3-2.95 0.93331-0.86663 1.8833-1.55 2.85-2.05 0.99997-0.5333 1.9333-0.79996 2.8-0.8h13.25v9.75m-12.25-8c-1.4 3.3e-5 -2.5834 0.30003-3.55 0.9-0.96669 0.60003-1.85 1.3667-2.65 2.3-0.80002 0.90003-1.3334 1.7667-1.6 2.6-0.23336 0.80003-0.35002 1.5667-0.35 2.3v23.4h6.55v-22.85c-3e-5 -0.23331 0.0666-0.48331 0.2-0.75 0.1333-0.29997 0.29997-0.56664 0.5-0.8 0.19997-0.23331 0.41664-0.43331 0.65-0.6 0.26664-0.16664 0.54997-0.24997 0.85-0.25h9.9v-6.25h-10.5" style=""/>
   <path id="path5540" d="m80.975 125.75v-31.5h-2.85l-11.5 13.1v3.75h7.8v14.65h6.55m-7.2 1.75-1.1-1.2v-13.45h-6.7l-1.1-1.2v-4.95l12.7-14.2h4.05l1.1 1.2v32.6l-1.1 1.2h-7.85m-18.95-1.75v-14.65h7.8v-3.75l-11.5-13.1h-2.85v31.5h6.55m-7.2 1.75-1.1-1.2v-32.6l1.1-1.2h4.05l12.7 14.2v4.95l-1.1 1.2h-6.7v13.45l-1.1 1.2h-7.85" style=""/>
   <path id="path5542" d="m94.432 117.7h7.7l0.65-0.55v-23.45l1.1-1.2h7.85l1.1 1.2v24.55c-3e-5 1.2-0.31669 2.3667-0.95 3.5-0.63336 1.1-1.4 2.0833-2.3 2.95-0.90002 0.83334-1.8667 1.5167-2.9 2.05-1 0.5-1.9 0.75-2.7 0.75h-11.3c-0.80001 0-1.7167-0.25-2.75-0.75-1-0.53333-1.9667-1.2167-2.9-2.05-0.9-0.86666-1.6667-1.85-2.3-2.95-0.63333-1.1333-0.96667-2.3-1-3.5v-24.55l1.1-1.2h7.85l1.1 1.2v23.45l0.65 0.55m8.55 8.05c1.4-0.0333 2.6-0.33333 3.6-0.9 1.0333-0.6 1.8833-1.3 2.55-2.1 0.69998-0.83333 1.2-1.7 1.5-2.6 0.29997-0.89999 0.44997-1.7333 0.45-2.5v-23.4h-6.55v22.85c-2e-5 0.76668-0.25002 1.35-0.75 1.75-0.46668 0.40001-0.93335 0.60001-1.4 0.6h-8.1c-0.46668 1e-5 -0.96668-0.19999-1.5-0.6-0.50001-0.39999-0.75001-0.96666-0.75-1.7v-22.9h-6.55v23.4c0.03333 0.76668 0.21666 1.6 0.55 2.5 0.33333 0.86667 0.85 1.7167 1.55 2.55 0.7 0.8 1.5333 1.5 2.5 2.1 0.99999 0.6 2.2 0.91667 3.6 0.95h9.3" style=""/>
   <path id="path5544" d="m113.81 119.2 1.1-1.2h18.4c1.6 1e-5 3.1833-0.73332 4.75-2.2 1.5666-1.5 2.35-3.1833 2.35-5.05h9.7c-4e-5 2.4-0.48337 4.6334-1.45 6.7-0.9667 2.0333-2.2334 3.8-3.8 5.3-1.5334 1.4667-3.2834 2.6333-5.25 3.5-1.9334 0.83333-3.8834 1.25-5.85 1.25h-18.85l-1.1-1.2v-7.1m28.2-6.7c-0.2667 1.5667-1.2667 3.1667-3 4.8-1.7334 1.6333-3.9167 2.45-6.55 2.45h-16.9v6h16.45c2.4 0.0333 4.2833-0.16666 5.65-0.6 1.4-0.43333 2.7-1.0667 3.9-1.9 1.2-0.86666 2.2333-1.8167 3.1-2.85 0.86663-1.0333 1.5666-2.0667 2.1-3.1 0.5333-1.0333 0.91663-1.9333 1.15-2.7 0.2333-0.79999 0.34996-1.5 0.35-2.1h-6.25m8.1-11.45-1.1 1.2h-18.4c-1.6 3e-5 -3.1834 0.70002-4.75 2.1-1.5667 1.4-2.35 3.0334-2.35 4.9h-9.7c0-2.4 0.48333-4.6166 1.45-6.65 0.96666-2.0666 2.2167-3.8333 3.75-5.3 1.5667-1.5 3.3166-2.6666 5.25-3.5 1.9666-0.86663 3.9333-1.3 5.9-1.3h18.85l1.1 1.2v7.35m-28.2 6.45c0.26665-1.5666 1.2666-3.1166 3-4.65 1.7333-1.5666 3.9166-2.35 6.55-2.35h16.9v-6.25h-16.45c-2.4-0.0333-4.3 0.1667-5.7 0.6-1.3667 0.43337-2.65 1.0834-3.85 1.95-1.2 0.83336-2.2333 1.7667-3.1 2.8-0.86667 1.0334-1.5667 2.0667-2.1 3.1-0.53334 1.0334-0.91667 1.95-1.15 2.75-0.23334 0.76669-0.35001 1.45-0.35 2.05h6.25" style=""/>
   <path id="path5546" d="m151.31 93.5 1-1h8.15l1 1v33.25l-1 0.75h-8.15l-1-0.75v-16.75-16.5m1.75 32.25h6.65v-31.5h-6.65v31.5" style=""/>
   <path id="path5548" d="m193.44 102.2h-13.85c-1.0334 3e-5 -1.9334 0.18336-2.7 0.55-0.73335 0.33336-1.4667 0.88336-2.2 1.65-0.70001 0.73336-1.2334 1.5667-1.6 2.5-0.36668 0.93335-0.55001 2.0167-0.55 3.25-1e-5 1.0334 0.18332 2.0167 0.55 2.95 0.36665 0.93335 0.89999 1.7834 1.6 2.55 0.73332 0.73334 1.4666 1.2833 2.2 1.65 0.76665 0.33334 1.6666 0.50001 2.7 0.5h13.85v8.95l-1.05 0.75h-13.25c-1.6334 0-3.5667-0.43333-5.8-1.3-2.2333-0.86666-4.15-2.0833-5.75-3.65-1.5667-1.6-2.8167-3.4667-3.75-5.6-0.93333-2.1333-1.4-4.4-1.4-6.8 0-2.6 0.46667-4.9666 1.4-7.1 0.93333-2.1333 2.1833-3.9833 3.75-5.55 1.6-1.6 3.5167-2.8333 5.75-3.7 2.2333-0.86663 4.1666-1.3 5.8-1.3h13.25l1.05 0.75v8.95m-29.2 7.95c0 2.4667 0.55 4.8 1.65 7 0.53333 0.93334 1.15 1.8667 1.85 2.8 0.73333 0.93334 1.6167 1.8167 2.65 2.65 1.0667 0.8 2.3333 1.5 3.8 2.1 1.5 0.6 3.2333 0.95 5.2 1.05h12.25v-6.2h-11.95c-2.1334-0.19999-3.8167-0.76666-5.05-1.7-1.2334-0.93332-2.2167-2.1-2.95-3.5-0.60001-1.3-0.90001-2.7-0.9-4.2-1e-5 -1.7 0.29999-3.2 0.9-4.5 0.73332-1.4 1.7166-2.5666 2.95-3.5 1.2333-0.93331 2.9166-1.5 5.05-1.7h11.95v-6.2h-12.25c-1.9667 0.10003-3.7 0.45003-5.2 1.05-1.4667 0.60003-2.7333 1.3167-3.8 2.15-1.0333 0.80003-1.9167 1.6667-2.65 2.6-0.70001 0.93336-1.3167 1.8667-1.85 2.8-1.1 2.2-1.65 4.6334-1.65 7.3" style=""/>
  </g>
 </g>
 <g id="layer1" transform="translate(0 -892.36)">
  <g id="text4282" fill="#0ff" stroke="#0ff">
   <path id="path5551" d="m20.988 949.06 1.1-1.2h18.4c1.6 1e-5 3.1833-0.73332 4.75-2.2 1.5666-1.5 2.35-3.1833 2.35-5.05h9.7c-3.7e-5 2.4-0.48337 4.6334-1.45 6.7-0.9667 2.0333-2.2334 3.8-3.8 5.3-1.5334 1.4667-3.2834 2.6333-5.25 3.5-1.9334 0.83334-3.8834 1.25-5.85 1.25h-18.85l-1.1-1.2v-7.1m28.2-6.7c-0.2667 1.5667-1.2667 3.1667-3 4.8-1.7334 1.6333-3.9167 2.45-6.55 2.45h-16.9v6h16.45c2.4 0.0333 4.2833-0.16666 5.65-0.6 1.4-0.43333 2.7-1.0667 3.9-1.9 1.2-0.86666 2.2333-1.8167 3.1-2.85 0.86664-1.0333 1.5666-2.0666 2.1-3.1 0.5333-1.0333 0.91663-1.9333 1.15-2.7 0.2333-0.79998 0.34996-1.5 0.35-2.1h-6.25m8.1-11.45-1.1 1.2h-18.4c-1.6 3e-5 -3.1833 0.70003-4.75 2.1-1.5667 1.4-2.35 3.0334-2.35 4.9h-9.7c0-2.4 0.48333-4.6166 1.45-6.65 0.96666-2.0666 2.2167-3.8333 3.75-5.3 1.5667-1.5 3.3167-2.6666 5.25-3.5 1.9667-0.86663 3.9333-1.3 5.9-1.3h18.85l1.1 1.2v7.35m-28.2 6.45c0.26666-1.5666 1.2667-3.1166 3-4.65 1.7333-1.5666 3.9167-2.35 6.55-2.35h16.9v-6.25h-16.45c-2.4-0.0333-4.3 0.1667-5.7 0.6-1.3667 0.43337-2.65 1.0834-3.85 1.95-1.2 0.83337-2.2333 1.7667-3.1 2.8-0.86667 1.0334-1.5667 2.0667-2.1 3.1-0.53334 1.0334-0.91667 1.95-1.15 2.75-0.23334 0.76669-0.35 1.45-0.35 2.05h6.25" style=""/>
   <path id="path5553" d="m87.838 934.86h-28.35l-1 0.75v21l1 0.75h30.6l1.05-0.75v-7.75l-1-1.2h-21.5v-2.8h8.6c1.6666-0.1 3.1-0.41665 4.3-0.95 1.2333-0.56665 2.2333-1.2 3-1.9 0.79997-0.73331 1.55-1.8 2.25-3.2 0.69997-1.4 1.05-2.7166 1.05-3.95m-27.6 1.75h25.3c-0.23336 1.0334-0.73336 2.05-1.5 3.05-0.76669 0.96669-1.6834 1.7667-2.75 2.4-1.0667 0.60002-2.4834 0.95002-4.25 1.05h-10.15v6.3h22.5v6.2h-29.15v-19m-0.75-4.5-1-0.75v-8.25l1-0.75h30.65l1 0.75v8.25l-1 0.75h-30.65m29.9-1.75v-6.25h-29.15v6.25h29.15" style=""/>
   <path id="path5555" d="m114.83 948.86v7.3l-1.1 1.2h-12.65c-0.80001 0-1.7167-0.25-2.75-0.75-1-0.53333-1.9667-1.2167-2.9-2.05-0.9-0.86666-1.6667-1.85-2.3-2.95-0.63334-1.1333-0.95-2.3-0.95-3.5v-24.55l1.1-1.2h7.85l1.1 1.2v23.45l0.75 0.65h10.75l1.1 1.2m-1.75 0.55h-10.4c-0.43335-0.0333-0.90001-0.24999-1.4-0.65-0.50001-0.43332-0.76668-1.0333-0.8-1.8v-22.85h-6.55v23.4c-2e-6 0.76668 0.18333 1.5833 0.55 2.45 0.36666 0.83334 0.88333 1.6667 1.55 2.5 0.7 0.80001 1.55 1.5167 2.55 2.15 1.0333 0.63334 2.2 0.96667 3.5 1h11v-6.2" style=""/>
   <path id="path5557" d="m145.16 934.86h-28.35l-1 0.75v21l1 0.75h30.6l1.05-0.75v-7.75l-1-1.2h-21.5v-2.8h8.6c1.6666-0.1 3.1-0.41665 4.3-0.95 1.2333-0.56665 2.2333-1.2 3-1.9 0.79997-0.73331 1.55-1.8 2.25-3.2 0.69997-1.4 1.05-2.7166 1.05-3.95m-27.6 1.75h25.3c-0.23336 1.0334-0.73336 2.05-1.5 3.05-0.76669 0.96669-1.6834 1.7667-2.75 2.4-1.0667 0.60002-2.4834 0.95002-4.25 1.05h-10.15v6.3h22.5v6.2h-29.15v-19m-0.75-4.5-1-0.75v-8.25l1-0.75h30.65l1 0.75v8.25l-1 0.75h-30.65m29.9-1.75v-6.25h-29.15v6.25h29.15" style=""/>
   <path id="path5559" d="m180.5 932.06h-13.85c-1.0334 3e-5 -1.9334 0.18336-2.7 0.55-0.73335 0.33336-1.4667 0.88336-2.2 1.65-0.70002 0.73336-1.2334 1.5667-1.6 2.5-0.36668 0.93336-0.55001 2.0167-0.55 3.25-1e-5 1.0334 0.18332 2.0167 0.55 2.95 0.36665 0.93335 0.89998 1.7834 1.6 2.55 0.73332 0.73335 1.4666 1.2834 2.2 1.65 0.76665 0.33335 1.6666 0.50001 2.7 0.5h13.85v8.95l-1.05 0.75h-13.25c-1.6334 0-3.5667-0.43333-5.8-1.3-2.2334-0.86666-4.15-2.0833-5.75-3.65-1.5667-1.6-2.8167-3.4667-3.75-5.6-0.93334-2.1333-1.4-4.4-1.4-6.8 0-2.6 0.46666-4.9666 1.4-7.1 0.93333-2.1333 2.1833-3.9833 3.75-5.55 1.6-1.6 3.5166-2.8333 5.75-3.7 2.2333-0.86663 4.1666-1.3 5.8-1.3h13.25l1.05 0.75v8.95m-29.2 7.95c-1e-5 2.4667 0.54999 4.8 1.65 7 0.53333 0.93335 1.15 1.8667 1.85 2.8 0.73332 0.93334 1.6167 1.8167 2.65 2.65 1.0666 0.80001 2.3333 1.5 3.8 2.1 1.5 0.6 3.2333 0.95 5.2 1.05h12.25v-6.2h-11.95c-2.1334-0.19999-3.8167-0.76666-5.05-1.7-1.2334-0.93332-2.2167-2.1-2.95-3.5-0.60001-1.3-0.90001-2.7-0.9-4.2-1e-5 -1.7 0.29999-3.2 0.9-4.5 0.73332-1.4 1.7166-2.5666 2.95-3.5 1.2333-0.9333 2.9166-1.5 5.05-1.7h11.95v-6.2h-12.25c-1.9667 0.10004-3.7 0.45004-5.2 1.05-1.4667 0.60003-2.7334 1.3167-3.8 2.15-1.0333 0.80003-1.9167 1.6667-2.65 2.6-0.70001 0.93336-1.3167 1.8667-1.85 2.8-1.1 2.2-1.65 4.6334-1.65 7.3" style=""/>
   <path id="path5561" d="m181.54 923.56 1.1-1.2h11.55l1.1 1.2v7.35l-1.1 1.2h-11.55l-1.1-1.2v-7.35m1.75 6.8h10.25v-6.25h-10.25v6.25m36.25 1.75h-11.2c-0.5667 3e-5 -0.85003 0.26669-0.85 0.8v23.25l-1.15 1.2h-7.85l-1.1-1.2v-24.55c-2e-5 -1.2 0.31665-2.35 0.95-3.45 0.63331-1.1333 1.4-2.1166 2.3-2.95 0.93331-0.86663 1.8833-1.55 2.85-2.05 0.99997-0.5333 1.9333-0.79996 2.8-0.8h13.25v9.75m-12.25-8c-1.4 4e-5 -2.5834 0.30004-3.55 0.9-0.96669 0.60003-1.85 1.3667-2.65 2.3-0.80002 0.90003-1.3334 1.7667-1.6 2.6-0.23336 0.80003-0.35002 1.5667-0.35 2.3v23.4h6.55v-22.85c-3e-5 -0.23331 0.0666-0.48331 0.2-0.75 0.1333-0.29997 0.29997-0.56664 0.5-0.8 0.19997-0.2333 0.41664-0.4333 0.65-0.6 0.26664-0.16664 0.54997-0.24997 0.85-0.25h9.9v-6.25h-10.5" style=""/>
   <path id="path5563" d="m80.975 1018.1v-31.5h-2.85l-11.5 13.1v3.75h7.8v14.65h6.55m-7.2 1.75-1.1-1.2v-13.45h-6.7l-1.1-1.2v-4.95l12.7-14.2h4.05l1.1 1.2v32.6l-1.1 1.2h-7.85m-18.95-1.75v-14.65h7.8v-3.75l-11.5-13.1h-2.85v31.5h6.55m-7.2 1.75-1.1-1.2v-32.6l1.1-1.2h4.05l12.7 14.2v4.95l-1.1 1.2h-6.7v13.45l-1.1 1.2h-7.85" style=""/>
   <path id="path5565" d="m94.432 1010.1h7.7l0.65-0.55v-23.45l1.1-1.2h7.85l1.1 1.2v24.55c-3e-5 1.2-0.31669 2.3667-0.95 3.5-0.63336 1.1-1.4 2.0833-2.3 2.95-0.90002 0.8333-1.8667 1.5167-2.9 2.05-1 0.5-1.9 0.75-2.7 0.75h-11.3c-0.80001 0-1.7167-0.25-2.75-0.75-1-0.5333-1.9667-1.2167-2.9-2.05-0.9-0.8667-1.6667-1.85-2.3-2.95-0.63333-1.1333-0.96667-2.3-1-3.5v-24.55l1.1-1.2h7.85l1.1 1.2v23.45l0.65 0.55m8.55 8.05c1.4-0.033 2.6-0.3333 3.6-0.9 1.0333-0.6 1.8833-1.3 2.55-2.1 0.69998-0.8333 1.2-1.7 1.5-2.6 0.29997-0.9 0.44997-1.7333 0.45-2.5v-23.4h-6.55v22.85c-2e-5 0.7667-0.25002 1.35-0.75 1.75-0.46668 0.4-0.93335 0.6-1.4 0.6h-8.1c-0.46668 0-0.96668-0.2-1.5-0.6-0.50001-0.4-0.75001-0.9667-0.75-1.7v-22.9h-6.55v23.4c0.03333 0.7667 0.21666 1.6 0.55 2.5 0.33333 0.8667 0.85 1.7167 1.55 2.55 0.7 0.8 1.5333 1.5 2.5 2.1 0.99999 0.6 2.2 0.9167 3.6 0.95h9.3" style=""/>
   <path id="path5567" d="m113.81 1011.6 1.1-1.2h18.4c1.6 0 3.1833-0.7333 4.75-2.2 1.5666-1.5 2.35-3.1833 2.35-5.05h9.7c-4e-5 2.4-0.48337 4.6333-1.45 6.7-0.9667 2.0333-2.2334 3.8-3.8 5.3-1.5334 1.4667-3.2834 2.6333-5.25 3.5-1.9334 0.8333-3.8834 1.25-5.85 1.25h-18.85l-1.1-1.2v-7.1m28.2-6.7c-0.2667 1.5667-1.2667 3.1667-3 4.8-1.7334 1.6333-3.9167 2.45-6.55 2.45h-16.9v6h16.45c2.4 0.033 4.2833-0.1667 5.65-0.6 1.4-0.4333 2.7-1.0667 3.9-1.9 1.2-0.8667 2.2333-1.8167 3.1-2.85 0.86663-1.0333 1.5666-2.0667 2.1-3.1 0.5333-1.0333 0.91663-1.9333 1.15-2.7 0.2333-0.8 0.34996-1.5 0.35-2.1h-6.25m8.1-11.45-1.1 1.2h-18.4c-1.6 3e-5 -3.1834 0.70003-4.75 2.1-1.5667 1.4-2.35 3.0334-2.35 4.9h-9.7c0-2.4 0.48333-4.6167 1.45-6.65 0.96666-2.0666 2.2167-3.8333 3.75-5.3 1.5667-1.5 3.3166-2.6666 5.25-3.5 1.9666-0.86663 3.9333-1.3 5.9-1.3h18.85l1.1 1.2v7.35m-28.2 6.45c0.26665-1.5666 1.2666-3.1166 3-4.65 1.7333-1.5666 3.9166-2.35 6.55-2.35h16.9v-6.25h-16.45c-2.4-0.0333-4.3 0.1667-5.7 0.6-1.3667 0.43337-2.65 1.0834-3.85 1.95-1.2 0.83337-2.2333 1.7667-3.1 2.8-0.86667 1.0334-1.5667 2.0667-2.1 3.1-0.53334 1.0334-0.91667 1.95-1.15 2.75-0.23334 0.76669-0.35001 1.45-0.35 2.05h6.25" style=""/>
   <path id="path5569" d="m151.31 985.86 1-1h8.15l1 1v33.25l-1 0.75h-8.15l-1-0.75v-16.75-16.5m1.75 32.25h6.65v-31.5h-6.65v31.5" style=""/>
   <path id="path5571" d="m193.44 994.56h-13.85c-1.0334 3e-5 -1.9334 0.18336-2.7 0.55-0.73335 0.33336-1.4667 0.88336-2.2 1.65-0.70001 0.73336-1.2334 1.5667-1.6 2.5-0.36668 0.93332-0.55001 2.0167-0.55 3.25-1e-5 1.0333 0.18332 2.0167 0.55 2.95 0.36665 0.9333 0.89999 1.7833 1.6 2.55 0.73332 0.7333 1.4666 1.2833 2.2 1.65 0.76665 0.3333 1.6666 0.5 2.7 0.5h13.85v8.95l-1.05 0.75h-13.25c-1.6334 0-3.5667-0.4334-5.8-1.3-2.2333-0.8667-4.15-2.0833-5.75-3.65-1.5667-1.6-2.8167-3.4667-3.75-5.6s-1.4-4.4-1.4-6.8c0-2.6 0.46667-4.9667 1.4-7.1 0.93333-2.1333 2.1833-3.9833 3.75-5.55 1.6-1.6 3.5167-2.8333 5.75-3.7 2.2333-0.86663 4.1666-1.3 5.8-1.3h13.25l1.05 0.75v8.95m-29.2 7.95c0 2.4667 0.55 4.8 1.65 7 0.53333 0.9333 1.15 1.8667 1.85 2.8 0.73333 0.9333 1.6167 1.8167 2.65 2.65 1.0667 0.8 2.3333 1.5 3.8 2.1 1.5 0.6 3.2333 0.95 5.2 1.05h12.25v-6.2h-11.95c-2.1334-0.2-3.8167-0.7667-5.05-1.7-1.2334-0.9333-2.2167-2.1-2.95-3.5-0.60001-1.3-0.90001-2.7-0.9-4.2-1e-5 -1.7 0.29999-3.2 0.9-4.5 0.73332-1.4 1.7166-2.5666 2.95-3.5 1.2333-0.9333 2.9166-1.5 5.05-1.7h11.95v-6.2h-12.25c-1.9667 0.10004-3.7 0.45004-5.2 1.05-1.4667 0.60003-2.7333 1.3167-3.8 2.15-1.0333 0.80003-1.9167 1.6667-2.65 2.6-0.70001 0.93336-1.3167 1.8667-1.85 2.8-1.1 2.2-1.65 4.6334-1.65 7.3" style=""/>
  </g>
 </g>
 <g id="layer2">
  <g id="text4282-6" fill="#f4ffff" opacity=".72" stroke="#0ff">
   <path id="path5574" d="m20.988 56.7 1.1-1.2h18.4c1.6 9e-6 3.1833-0.73332 4.75-2.2 1.5666-1.5 2.35-3.1833 2.35-5.05h9.7c-3.7e-5 2.4-0.48337 4.6333-1.45 6.7-0.9667 2.0333-2.2334 3.8-3.8 5.3-1.5334 1.4667-3.2834 2.6333-5.25 3.5-1.9334 0.83333-3.8834 1.25-5.85 1.25h-18.85l-1.1-1.2v-7.1m28.2-6.7c-0.2667 1.5667-1.2667 3.1667-3 4.8-1.7334 1.6333-3.9167 2.45-6.55 2.45h-16.9v6h16.45c2.4 0.03334 4.2833-0.16666 5.65-0.6 1.4-0.43333 2.7-1.0667 3.9-1.9 1.2-0.86666 2.2333-1.8167 3.1-2.85 0.86664-1.0333 1.5666-2.0667 2.1-3.1 0.5333-1.0333 0.91663-1.9333 1.15-2.7 0.2333-0.79999 0.34996-1.5 0.35-2.1h-6.25m8.1-11.45-1.1 1.2h-18.4c-1.6 2.5e-5 -3.1833 0.70002-4.75 2.1-1.5667 1.4-2.35 3.0334-2.35 4.9h-9.7c0-2.4 0.48333-4.6166 1.45-6.65 0.96666-2.0666 2.2167-3.8333 3.75-5.3 1.5667-1.5 3.3167-2.6666 5.25-3.5 1.9667-0.86663 3.9333-1.3 5.9-1.3h18.85l1.1 1.2v7.35m-28.2 6.45c0.26666-1.5666 1.2667-3.1166 3-4.65 1.7333-1.5666 3.9167-2.35 6.55-2.35h16.9v-6.25h-16.45c-2.4-0.0333-4.3 0.1667-5.7 0.6-1.3667 0.43337-2.65 1.0834-3.85 1.95-1.2 0.83336-2.2333 1.7667-3.1 2.8-0.86667 1.0334-1.5667 2.0667-2.1 3.1-0.53334 1.0334-0.91667 1.95-1.15 2.75-0.23334 0.76669-0.35 1.45-0.35 2.05h6.25" style=""/>
   <path id="path5576" d="m87.838 42.5h-28.35l-1 0.75v21l1 0.75h30.6l1.05-0.75v-7.75l-1-1.2h-21.5v-2.8h8.6c1.6666-0.09999 3.1-0.41665 4.3-0.95 1.2333-0.56665 2.2333-1.2 3-1.9 0.79997-0.73332 1.55-1.8 2.25-3.2 0.69997-1.4 1.05-2.7166 1.05-3.95m-27.6 1.75h25.3c-0.23336 1.0334-0.73336 2.05-1.5 3.05-0.76669 0.96668-1.6834 1.7667-2.75 2.4-1.0667 0.60002-2.4834 0.95001-4.25 1.05h-10.15v6.3h22.5v6.2h-29.15v-19m-0.75-4.5-1-0.75v-8.25l1-0.75h30.65l1 0.75v8.25l-1 0.75h-30.65m29.9-1.75v-6.25h-29.15v6.25h29.15" style=""/>
   <path id="path5578" d="m114.83 56.5v7.3l-1.1 1.2h-12.65c-0.80001 0-1.7167-0.25-2.75-0.75-1-0.53333-1.9667-1.2167-2.9-2.05-0.9-0.86666-1.6667-1.85-2.3-2.95-0.63334-1.1333-0.95-2.3-0.95-3.5v-24.55l1.1-1.2h7.85l1.1 1.2v23.45l0.75 0.65h10.75l1.1 1.2m-1.75 0.55h-10.4c-0.43335-0.03332-0.90001-0.24999-1.4-0.65-0.50001-0.43332-0.76668-1.0333-0.8-1.8v-22.85h-6.55v23.4c-2e-6 0.76668 0.18333 1.5833 0.55 2.45 0.36666 0.83334 0.88333 1.6667 1.55 2.5 0.7 0.8 1.55 1.5167 2.55 2.15 1.0333 0.63334 2.2 0.96667 3.5 1h11v-6.2" style=""/>
   <path id="path5580" d="m145.16 42.5h-28.35l-1 0.75v21l1 0.75h30.6l1.05-0.75v-7.75l-1-1.2h-21.5v-2.8h8.6c1.6666-0.09999 3.1-0.41665 4.3-0.95 1.2333-0.56665 2.2333-1.2 3-1.9 0.79997-0.73332 1.55-1.8 2.25-3.2 0.69997-1.4 1.05-2.7166 1.05-3.95m-27.6 1.75h25.3c-0.23336 1.0334-0.73336 2.05-1.5 3.05-0.76669 0.96668-1.6834 1.7667-2.75 2.4-1.0667 0.60002-2.4834 0.95001-4.25 1.05h-10.15v6.3h22.5v6.2h-29.15v-19m-0.75-4.5-1-0.75v-8.25l1-0.75h30.65l1 0.75v8.25l-1 0.75h-30.65m29.9-1.75v-6.25h-29.15v6.25h29.15" style=""/>
   <path id="path5582" d="m180.5 39.7h-13.85c-1.0334 2.5e-5 -1.9334 0.18336-2.7 0.55-0.73335 0.33336-1.4667 0.88336-2.2 1.65-0.70002 0.73336-1.2334 1.5667-1.6 2.5-0.36668 0.93335-0.55001 2.0167-0.55 3.25-1e-5 1.0334 0.18332 2.0167 0.55 2.95 0.36665 0.93335 0.89998 1.7833 1.6 2.55 0.73332 0.73334 1.4666 1.2833 2.2 1.65 0.76665 0.33334 1.6666 0.50001 2.7 0.5h13.85v8.95l-1.05 0.75h-13.25c-1.6334 0-3.5667-0.43333-5.8-1.3-2.2334-0.86666-4.15-2.0833-5.75-3.65-1.5667-1.6-2.8167-3.4667-3.75-5.6-0.93334-2.1333-1.4-4.4-1.4-6.8 0-2.6 0.46666-4.9666 1.4-7.1 0.93333-2.1333 2.1833-3.9833 3.75-5.55 1.6-1.6 3.5166-2.8333 5.75-3.7 2.2333-0.86663 4.1666-1.3 5.8-1.3h13.25l1.05 0.75v8.95m-29.2 7.95c-1e-5 2.4667 0.54999 4.8 1.65 7 0.53333 0.93334 1.15 1.8667 1.85 2.8 0.73332 0.93334 1.6167 1.8167 2.65 2.65 1.0666 0.8 2.3333 1.5 3.8 2.1 1.5 0.6 3.2333 0.95 5.2 1.05h12.25v-6.2h-11.95c-2.1334-0.19999-3.8167-0.76666-5.05-1.7-1.2334-0.93332-2.2167-2.1-2.95-3.5-0.60001-1.3-0.90001-2.7-0.9-4.2-1e-5 -1.7 0.29999-3.2 0.9-4.5 0.73332-1.4 1.7166-2.5666 2.95-3.5 1.2333-0.93331 2.9166-1.5 5.05-1.7h11.95v-6.2h-12.25c-1.9667 0.10003-3.7 0.45003-5.2 1.05-1.4667 0.60003-2.7334 1.3167-3.8 2.15-1.0333 0.80003-1.9167 1.6667-2.65 2.6-0.70001 0.93336-1.3167 1.8667-1.85 2.8-1.1 2.2-1.65 4.6334-1.65 7.3" style=""/>
   <path id="path5584" d="m181.54 31.2 1.1-1.2h11.55l1.1 1.2v7.35l-1.1 1.2h-11.55l-1.1-1.2v-7.35m1.75 6.8h10.25v-6.25h-10.25v6.25m36.25 1.75h-11.2c-0.5667 2.5e-5 -0.85003 0.26669-0.85 0.8v23.25l-1.15 1.2h-7.85l-1.1-1.2v-24.55c-2e-5 -1.2 0.31665-2.35 0.95-3.45 0.63331-1.1333 1.4-2.1166 2.3-2.95 0.93331-0.86663 1.8833-1.55 2.85-2.05 0.99997-0.5333 1.9333-0.79996 2.8-0.8h13.25v9.75m-12.25-8c-1.4 3.3e-5 -2.5834 0.30003-3.55 0.9-0.96669 0.60003-1.85 1.3667-2.65 2.3-0.80002 0.90003-1.3334 1.7667-1.6 2.6-0.23336 0.80003-0.35002 1.5667-0.35 2.3v23.4h6.55v-22.85c-3e-5 -0.23331 0.0666-0.48331 0.2-0.75 0.1333-0.29997 0.29997-0.56664 0.5-0.8 0.19997-0.23331 0.41664-0.43331 0.65-0.6 0.26664-0.16664 0.54997-0.24997 0.85-0.25h9.9v-6.25h-10.5" style=""/>
   <path id="path5586" d="m80.975 125.75v-31.5h-2.85l-11.5 13.1v3.75h7.8v14.65h6.55m-7.2 1.75-1.1-1.2v-13.45h-6.7l-1.1-1.2v-4.95l12.7-14.2h4.05l1.1 1.2v32.6l-1.1 1.2h-7.85m-18.95-1.75v-14.65h7.8v-3.75l-11.5-13.1h-2.85v31.5h6.55m-7.2 1.75-1.1-1.2v-32.6l1.1-1.2h4.05l12.7 14.2v4.95l-1.1 1.2h-6.7v13.45l-1.1 1.2h-7.85" style=""/>
   <path id="path5588" d="m94.432 117.7h7.7l0.65-0.55v-23.45l1.1-1.2h7.85l1.1 1.2v24.55c-3e-5 1.2-0.31669 2.3667-0.95 3.5-0.63336 1.1-1.4 2.0833-2.3 2.95-0.90002 0.83334-1.8667 1.5167-2.9 2.05-1 0.5-1.9 0.75-2.7 0.75h-11.3c-0.80001 0-1.7167-0.25-2.75-0.75-1-0.53333-1.9667-1.2167-2.9-2.05-0.9-0.86666-1.6667-1.85-2.3-2.95-0.63333-1.1333-0.96667-2.3-1-3.5v-24.55l1.1-1.2h7.85l1.1 1.2v23.45l0.65 0.55m8.55 8.05c1.4-0.0333 2.6-0.33333 3.6-0.9 1.0333-0.6 1.8833-1.3 2.55-2.1 0.69998-0.83333 1.2-1.7 1.5-2.6 0.29997-0.89999 0.44997-1.7333 0.45-2.5v-23.4h-6.55v22.85c-2e-5 0.76668-0.25002 1.35-0.75 1.75-0.46668 0.40001-0.93335 0.60001-1.4 0.6h-8.1c-0.46668 1e-5 -0.96668-0.19999-1.5-0.6-0.50001-0.39999-0.75001-0.96666-0.75-1.7v-22.9h-6.55v23.4c0.03333 0.76668 0.21666 1.6 0.55 2.5 0.33333 0.86667 0.85 1.7167 1.55 2.55 0.7 0.8 1.5333 1.5 2.5 2.1 0.99999 0.6 2.2 0.91667 3.6 0.95h9.3" style=""/>
   <path id="path5590" d="m113.81 119.2 1.1-1.2h18.4c1.6 1e-5 3.1833-0.73332 4.75-2.2 1.5666-1.5 2.35-3.1833 2.35-5.05h9.7c-4e-5 2.4-0.48337 4.6334-1.45 6.7-0.9667 2.0333-2.2334 3.8-3.8 5.3-1.5334 1.4667-3.2834 2.6333-5.25 3.5-1.9334 0.83333-3.8834 1.25-5.85 1.25h-18.85l-1.1-1.2v-7.1m28.2-6.7c-0.2667 1.5667-1.2667 3.1667-3 4.8-1.7334 1.6333-3.9167 2.45-6.55 2.45h-16.9v6h16.45c2.4 0.0333 4.2833-0.16666 5.65-0.6 1.4-0.43333 2.7-1.0667 3.9-1.9 1.2-0.86666 2.2333-1.8167 3.1-2.85 0.86663-1.0333 1.5666-2.0667 2.1-3.1 0.5333-1.0333 0.91663-1.9333 1.15-2.7 0.2333-0.79999 0.34996-1.5 0.35-2.1h-6.25m8.1-11.45-1.1 1.2h-18.4c-1.6 3e-5 -3.1834 0.70002-4.75 2.1-1.5667 1.4-2.35 3.0334-2.35 4.9h-9.7c0-2.4 0.48333-4.6166 1.45-6.65 0.96666-2.0666 2.2167-3.8333 3.75-5.3 1.5667-1.5 3.3166-2.6666 5.25-3.5 1.9666-0.86663 3.9333-1.3 5.9-1.3h18.85l1.1 1.2v7.35m-28.2 6.45c0.26665-1.5666 1.2666-3.1166 3-4.65 1.7333-1.5666 3.9166-2.35 6.55-2.35h16.9v-6.25h-16.45c-2.4-0.0333-4.3 0.1667-5.7 0.6-1.3667 0.43337-2.65 1.0834-3.85 1.95-1.2 0.83336-2.2333 1.7667-3.1 2.8-0.86667 1.0334-1.5667 2.0667-2.1 3.1-0.53334 1.0334-0.91667 1.95-1.15 2.75-0.23334 0.76669-0.35001 1.45-0.35 2.05h6.25" style=""/>
   <path id="path5592" d="m151.31 93.5 1-1h8.15l1 1v33.25l-1 0.75h-8.15l-1-0.75v-16.75-16.5m1.75 32.25h6.65v-31.5h-6.65v31.5" style=""/>
   <path id="path5594" d="m193.44 102.2h-13.85c-1.0334 3e-5 -1.9334 0.18336-2.7 0.55-0.73335 0.33336-1.4667 0.88336-2.2 1.65-0.70001 0.73336-1.2334 1.5667-1.6 2.5-0.36668 0.93335-0.55001 2.0167-0.55 3.25-1e-5 1.0334 0.18332 2.0167 0.55 2.95 0.36665 0.93335 0.89999 1.7834 1.6 2.55 0.73332 0.73334 1.4666 1.2833 2.2 1.65 0.76665 0.33334 1.6666 0.50001 2.7 0.5h13.85v8.95l-1.05 0.75h-13.25c-1.6334 0-3.5667-0.43333-5.8-1.3-2.2333-0.86666-4.15-2.0833-5.75-3.65-1.5667-1.6-2.8167-3.4667-3.75-5.6-0.93333-2.1333-1.4-4.4-1.4-6.8 0-2.6 0.46667-4.9666 1.4-7.1 0.93333-2.1333 2.1833-3.9833 3.75-5.55 1.6-1.6 3.5167-2.8333 5.75-3.7 2.2333-0.86663 4.1666-1.3 5.8-1.3h13.25l1.05 0.75v8.95m-29.2 7.95c0 2.4667 0.55 4.8 1.65 7 0.53333 0.93334 1.15 1.8667 1.85 2.8 0.73333 0.93334 1.6167 1.8167 2.65 2.65 1.0667 0.8 2.3333 1.5 3.8 2.1 1.5 0.6 3.2333 0.95 5.2 1.05h12.25v-6.2h-11.95c-2.1334-0.19999-3.8167-0.76666-5.05-1.7-1.2334-0.93332-2.2167-2.1-2.95-3.5-0.60001-1.3-0.90001-2.7-0.9-4.2-1e-5 -1.7 0.29999-3.2 0.9-4.5 0.73332-1.4 1.7166-2.5666 2.95-3.5 1.2333-0.93331 2.9166-1.5 5.05-1.7h11.95v-6.2h-12.25c-1.9667 0.10003-3.7 0.45003-5.2 1.05-1.4667 0.60003-2.7333 1.3167-3.8 2.15-1.0333 0.80003-1.9167 1.6667-2.65 2.6-0.70001 0.93336-1.3167 1.8667-1.85 2.8-1.1 2.2-1.65 4.6334-1.65 7.3" style=""/>
  </g>
 </g>
</svg>
