<?xml version="1.0" encoding="UTF-8" standalone="no"?>
<!-- Created with Inkscape (http://www.inkscape.org/) -->

<svg
   xmlns:dc="http://purl.org/dc/elements/1.1/"
   xmlns:cc="http://creativecommons.org/ns#"
   xmlns:rdf="http://www.w3.org/1999/02/22-rdf-syntax-ns#"
   xmlns:svg="http://www.w3.org/2000/svg"
   xmlns="http://www.w3.org/2000/svg"
   xmlns:sodipodi="http://sodipodi.sourceforge.net/DTD/sodipodi-0.dtd"
   xmlns:inkscape="http://www.inkscape.org/namespaces/inkscape"
   width="480"
   height="160"
   id="svg3289"
   version="1.1"
   inkscape:version="0.48.4 r9939"
   sodipodi:docname="Status+Selected.svg">
  <defs
     id="defs3291">
    <filter
       color-interpolation-filters="sRGB"
       inkscape:collect="always"
       id="filter4646-1">
      <feGaussianBlur
         inkscape:collect="always"
         stdDeviation="1.8999999"
         id="feGaussianBlur4648-4" />
    </filter>
    <filter
       inkscape:collect="always"
       id="filter5014"
       x="-0.012818182"
       width="1.0256364"
       y="-0.18800001"
       height="1.376">
      <feGaussianBlur
         inkscape:collect="always"
         stdDeviation="2.35"
         id="feGaussianBlur5016" />
    </filter>
  </defs>
  <sodipodi:namedview
     id="base"
     pagecolor="#ffffff"
     bordercolor="#666666"
     borderopacity="1.0"
     inkscape:pageopacity="0.0"
     inkscape:pageshadow="2"
     inkscape:zoom="1.775"
     inkscape:cx="240"
     inkscape:cy="80"
     inkscape:document-units="px"
     inkscape:current-layer="layer3"
     showgrid="true"
     showguides="true"
     inkscape:window-width="1412"
     inkscape:window-height="860"
     inkscape:window-x="138"
     inkscape:window-y="108"
     inkscape:window-maximized="0">
    <inkscape:grid
       type="xygrid"
       id="grid3327"
       empspacing="5"
       visible="true"
       enabled="true"
       snapvisiblegridlinesonly="true" />
  </sodipodi:namedview>
  <metadata
     id="metadata3294">
    <rdf:RDF>
      <cc:Work
         rdf:about="">
        <dc:format>image/svg+xml</dc:format>
        <dc:type
           rdf:resource="http://purl.org/dc/dcmitype/StillImage" />
        <dc:title />
      </cc:Work>
    </rdf:RDF>
  </metadata>
  <g
     inkscape:groupmode="layer"
     id="layer3"
     inkscape:label="Schatten"
     style="display:inline">
    <rect
       ry="14.5"
       rx="16.829266"
       y="10"
       x="10"
       height="145"
       width="460"
       id="rect4055"
       style="fill:none;stroke:#00ffff;stroke-width:5.89915228;stroke-linejoin:miter;stroke-miterlimit:4;stroke-opacity:1;stroke-dasharray:none;display:inline;filter:url(#filter4646-1)"
       transform="matrix(1,0,0,1.0344828,1.3645034e-8,-5.3448268)" />
    <rect
       style="fill:none;stroke:#00ffff;stroke-width:5;stroke-linecap:square;stroke-linejoin:miter;stroke-miterlimit:4;stroke-opacity:1;stroke-dasharray:none;display:inline;filter:url(#filter5014)"
       id="rect4503-0"
       width="444"
       height="34"
       x="18"
       y="63"
       rx="5"
       ry="5" />
  </g>
  <g
     inkscape:label="Ebene 1"
     inkscape:groupmode="layer"
     id="layer1"
     transform="translate(0,-892.36218)"
     style="display:inline">
    <rect
       style="fill:none;stroke:#00ffff;stroke-width:5;stroke-linejoin:miter;stroke-miterlimit:4;stroke-opacity:1;stroke-dasharray:none"
       id="rect3757"
       width="460"
       height="150"
       x="10"
       y="897.36218"
       rx="16.829266"
       ry="15.000001" />
    <rect
       style="fill:none;stroke:#00ffff;stroke-width:5;stroke-linecap:square;stroke-linejoin:miter;stroke-miterlimit:4;stroke-opacity:1;stroke-dasharray:none"
       id="rect4503"
       width="444"
       height="33.999996"
       x="18"
       y="955.36218"
       rx="5"
       ry="5" />
    <path
       style="color:#000000;fill:#00ffff;fill-opacity:0.12091501;fill-rule:nonzero;stroke:none;stroke-width:1px;marker:none;visibility:visible;display:inline;overflow:visible;enable-background:accumulate"
       d="m 22.659467,151.55397 c -4.601026,-1.24212 -8.201588,-4.7148 -9.40929,-9.0751 -0.877592,-3.16845 -0.885638,-121.586227 -0.0085,-125.069663 0.839068,-3.332239 3.76772,-6.597725 7.381701,-8.2306954 l 2.982255,-1.3475257 216.338027,0 216.33803,0 2.8169,1.2978109 c 3.53238,1.6274492 5.76112,3.6956692 7.10093,6.5895132 0.99556,2.150309 1.04334,5.091864 1.04334,64.225352 0,59.183158 -0.047,62.073238 -1.04559,64.225348 -1.29485,2.79075 -4.13144,5.5371 -7.09868,6.87286 -2.15642,0.97076 -11.55113,1.01898 -218.02817,1.11914 -172.32681,0.0836 -216.305486,-0.0386 -218.410954,-0.60704 l 0,0 z M 461.17212,98.636913 c 3.50316,-2.377876 3.56027,-2.67324 3.56027,-18.411561 0,-13.079538 -0.0951,-14.523346 -1.06227,-16.120822 -0.58426,-0.965043 -1.76422,-2.169269 -2.62214,-2.676056 -1.43681,-0.848744 -18.87879,-0.921432 -221.10432,-0.921432 -202.225529,0 -219.667508,0.07269 -221.104317,0.921432 -3.269029,1.931064 -3.402723,2.662557 -3.402723,18.617605 0,12.812265 0.116196,14.745036 0.960061,15.969408 1.288611,1.869662 2.373277,2.686907 4.392051,3.309217 1.024981,0.315961 87.717498,0.484851 220.281688,0.429138 210.34969,-0.08841 218.64849,-0.130518 220.1017,-1.116929 z"
       id="path6267"
       inkscape:connector-curvature="0"
       transform="translate(0,892.36218)" />
  </g>
  <g
     inkscape:groupmode="layer"
     id="layer2"
     inkscape:label="Highlight"
     style="opacity:0.72000002;display:inline">
    <rect
       ry="15.000001"
       rx="16.829266"
       y="5"
       x="10"
       height="150"
       width="460"
       id="rect3925"
       style="fill:none;stroke:#ffffff;stroke-width:1.5;stroke-linejoin:miter;stroke-miterlimit:4;stroke-opacity:1;stroke-dasharray:none;display:inline" />
    <rect
       style="fill:none;stroke:#ffffff;stroke-width:1.5;stroke-linecap:square;stroke-linejoin:miter;stroke-miterlimit:4;stroke-opacity:1;stroke-dasharray:none;display:inline"
       id="rect4503-8"
       width="444"
       height="34"
       x="18"
       y="63"
       rx="5"
       ry="5" />
  </g>
</svg>
